<?xml version="1.0" encoding="UTF-8"?>
<svg xmlns="http://www.w3.org/2000/svg" viewBox="0 0 400 400">
  <g id="vector_mask_16pps">
    <g id="row16">
      <polygon id="stitch16.16" points="348.5 347.38 353.79 347.38 359.07 347.38 364.35 347.38 369.63 347.38 369.63 353.23 369.63 359.08 369.63 364.93 369.63 370.78 364.35 370.78 359.07 370.78 353.79 370.78 348.5 370.78 348.5 364.93 348.5 359.08 348.5 353.23 348.5 347.38" fill="none" mix-blend-mode="multiply" opacity=".5" stroke="#000" stroke-miterlimit="10" stroke-width=".25"/>
      <polygon id="stitch16.15" points="327.38 347.38 332.66 347.38 337.94 347.38 343.22 347.38 348.5 347.38 348.5 353.23 348.5 359.08 348.5 364.93 348.5 370.78 343.22 370.78 337.94 370.78 332.66 370.78 327.38 370.78 327.38 364.93 327.38 359.08 327.38 353.23 327.38 347.38" fill="none" mix-blend-mode="multiply" opacity=".5" stroke="#000" stroke-miterlimit="10" stroke-width=".25"/>
      <polygon id="stitch16.14" points="306.25 347.38 311.53 347.38 316.81 347.38 322.09 347.38 327.38 347.38 327.38 353.23 327.38 359.08 327.38 364.93 327.38 370.78 322.09 370.78 316.81 370.78 311.53 370.78 306.25 370.78 306.25 364.93 306.25 359.08 306.25 353.23 306.25 347.38" fill="none" mix-blend-mode="multiply" opacity=".5" stroke="#000" stroke-miterlimit="10" stroke-width=".25"/>
      <polygon id="stitch16.13" points="285.12 347.38 290.4 347.38 295.68 347.38 300.96 347.38 306.25 347.38 306.25 353.23 306.25 359.08 306.25 364.93 306.25 370.78 300.96 370.78 295.68 370.78 290.4 370.78 285.12 370.78 285.12 364.93 285.12 359.08 285.12 353.23 285.12 347.38" fill="none" mix-blend-mode="multiply" opacity=".5" stroke="#000" stroke-miterlimit="10" stroke-width=".25"/>
      <polygon id="stitch16.12" points="263.99 347.38 269.27 347.38 274.55 347.38 279.84 347.38 285.12 347.38 285.12 353.23 285.12 359.08 285.12 364.93 285.12 370.78 279.84 370.78 274.55 370.78 269.27 370.78 263.99 370.78 263.99 364.93 263.99 359.08 263.99 353.23 263.99 347.38" fill="none" mix-blend-mode="multiply" opacity=".5" stroke="#000" stroke-miterlimit="10" stroke-width=".25"/>
      <polygon id="stitch16.11" points="242.86 347.38 248.14 347.38 253.42 347.38 258.71 347.38 263.99 347.38 263.99 353.23 263.99 359.08 263.99 364.93 263.99 370.78 258.71 370.78 253.42 370.78 248.14 370.78 242.86 370.78 242.86 364.93 242.86 359.08 242.86 353.23 242.86 347.38" fill="none" mix-blend-mode="multiply" opacity=".5" stroke="#000" stroke-miterlimit="10" stroke-width=".25"/>
      <polygon id="stitch16.10" points="221.73 347.38 227.01 347.38 232.29 347.38 237.58 347.38 242.86 347.38 242.86 353.23 242.86 359.08 242.86 364.93 242.86 370.78 237.58 370.78 232.29 370.78 227.01 370.78 221.73 370.78 221.73 364.93 221.73 359.08 221.73 353.23 221.73 347.38" fill="none" mix-blend-mode="multiply" opacity=".5" stroke="#000" stroke-miterlimit="10" stroke-width=".25"/>
      <polygon id="stitch16.9" points="200.6 347.38 205.88 347.38 211.17 347.38 216.45 347.38 221.73 347.38 221.73 353.23 221.73 359.08 221.73 364.93 221.73 370.78 216.45 370.78 211.17 370.78 205.88 370.78 200.6 370.78 200.6 364.93 200.6 359.08 200.6 353.23 200.6 347.38" fill="none" mix-blend-mode="multiply" opacity=".5" stroke="#000" stroke-miterlimit="10" stroke-width=".25"/>
      <polygon id="stitch16.8" points="179.47 347.38 184.75 347.38 190.04 347.38 195.32 347.38 200.6 347.38 200.6 353.23 200.6 359.08 200.6 364.93 200.6 370.78 195.32 370.78 190.04 370.78 184.75 370.78 179.47 370.78 179.47 364.93 179.47 359.08 179.47 353.23 179.47 347.38" fill="none" mix-blend-mode="multiply" opacity=".5" stroke="#000" stroke-miterlimit="10" stroke-width=".25"/>
      <polygon id="stitch16.7" points="158.34 347.38 163.63 347.38 168.91 347.38 174.19 347.38 179.47 347.38 179.47 353.23 179.47 359.08 179.47 364.93 179.47 370.78 174.19 370.78 168.91 370.78 163.63 370.78 158.34 370.78 158.34 364.93 158.34 359.08 158.34 353.23 158.34 347.38" fill="none" mix-blend-mode="multiply" opacity=".5" stroke="#000" stroke-miterlimit="10" stroke-width=".25"/>
      <polygon id="stitch16.6" points="137.21 347.38 142.5 347.38 147.78 347.38 153.06 347.38 158.34 347.38 158.34 353.23 158.34 359.08 158.34 364.93 158.34 370.78 153.06 370.78 147.78 370.78 142.5 370.78 137.21 370.78 137.21 364.93 137.21 359.08 137.21 353.23 137.21 347.38" fill="none" mix-blend-mode="multiply" opacity=".5" stroke="#000" stroke-miterlimit="10" stroke-width=".25"/>
      <polygon id="stitch16.5" points="116.09 347.38 121.37 347.38 126.65 347.38 131.93 347.38 137.21 347.38 137.21 353.23 137.21 359.08 137.21 364.93 137.21 370.78 131.93 370.78 122.45 370.4 116.9 372.31 112.19 369 115.58 362.56 116.09 359.08 116.09 353.23 116.09 347.38" fill="none" mix-blend-mode="multiply" opacity=".5" stroke="#000" stroke-miterlimit="10" stroke-width=".25"/>
      <polygon id="stitch16.4" points="94.96 347.38 100.24 347.38 105.52 347.38 110.8 347.38 116.09 347.38 116.09 353.23 116.09 359.08 115.58 362.56 112.19 369 107.91 370.52 102.4 372.99 93.24 372.57 91.5 370.78 93.96 365.95 94.96 359.08 94.96 353.23 94.96 347.38" fill="none" mix-blend-mode="multiply" opacity=".5" stroke="#000" stroke-miterlimit="10" stroke-width=".25"/>
      <polygon id="stitch16.3" points="73.83 347.38 79.11 347.38 84.39 347.38 89.67 347.38 94.96 347.38 94.96 353.23 94.96 359.08 93.96 365.95 91.5 370.78 86.96 372.99 80.18 372.99 75.72 369.89 69.79 368.07 72.42 363.66 74.96 359.08 73.83 353.23 73.83 347.38" fill="none" mix-blend-mode="multiply" opacity=".5" stroke="#000" stroke-miterlimit="10" stroke-width=".25"/>
      <polygon id="stitch16.2" points="48.93 345.94 57.66 349.41 63.26 347.38 68.54 347.38 73.83 347.38 73.83 353.23 74.96 359.08 72.42 363.66 69.79 368.07 65.34 370.78 59.27 372.99 51.11 371.84 48.12 367.9 51.11 364.59 55.16 357.21 57.66 349.41 48.93 345.94" fill="none" mix-blend-mode="multiply" opacity=".5" stroke="#000" stroke-miterlimit="10" stroke-width=".25"/>
      <polygon id="stitch16.1" points="35.78 349.88 39.6 348.57 43.59 347.73 46.47 346.78 48.93 345.94 57.66 349.41 55.16 357.21 51.11 364.59 48.12 367.9 45.28 370.45 41.08 372.14 37.43 372.57 33.41 370.19 30.72 366.8 30.78 359.46 32.52 354.59 35.78 349.88" fill="none" mix-blend-mode="multiply" opacity=".5" stroke="#000" stroke-miterlimit="10" stroke-width=".25"/>
    </g>
    <g id="row15">
      <polygon id="stitch15.16" points="348.5 324.48 353.79 324.48 359.07 324.48 364.35 324.48 369.63 324.48 369.63 330.2 369.63 335.93 369.63 341.65 369.63 347.38 364.35 347.38 359.07 347.38 353.79 347.38 348.5 347.38 348.5 341.65 348.5 335.93 348.5 330.2 348.5 324.48" fill="none" mix-blend-mode="multiply" opacity=".5" stroke="#000" stroke-miterlimit="10" stroke-width=".25"/>
      <polygon id="stitch15.15" points="327.38 324.48 332.66 324.48 337.94 324.48 343.22 324.48 348.5 324.48 348.5 330.2 348.5 335.93 348.5 341.65 348.5 347.38 343.22 347.38 337.94 347.38 332.66 347.38 327.38 347.38 327.38 341.65 327.38 335.93 327.38 330.2 327.38 324.48" fill="none" mix-blend-mode="multiply" opacity=".5" stroke="#000" stroke-miterlimit="10" stroke-width=".25"/>
      <polygon id="stitch15.14" points="306.25 324.48 311.53 324.48 316.81 324.48 322.09 324.48 327.38 324.48 327.38 330.2 327.38 335.93 327.38 341.65 327.38 347.38 322.09 347.38 316.81 347.38 311.53 347.38 306.25 347.38 306.25 341.65 306.25 335.93 306.25 330.2 306.25 324.48" fill="none" mix-blend-mode="multiply" opacity=".5" stroke="#000" stroke-miterlimit="10" stroke-width=".25"/>
      <polygon id="stitch15.13" points="285.12 324.48 290.4 324.48 295.68 324.48 300.96 324.48 306.25 324.48 306.25 330.2 306.25 335.93 306.25 341.65 306.25 347.38 300.96 347.38 295.68 347.38 290.4 347.38 285.12 347.38 285.12 341.65 285.12 335.93 285.12 330.2 285.12 324.48" fill="none" mix-blend-mode="multiply" opacity=".5" stroke="#000" stroke-miterlimit="10" stroke-width=".25"/>
      <polygon id="stitch15.12" points="263.99 324.48 269.27 324.48 274.55 324.48 279.84 324.48 285.12 324.48 285.12 330.2 285.12 335.93 285.12 341.65 285.12 347.38 279.84 347.38 274.55 347.38 269.27 347.38 263.99 347.38 263.99 341.65 263.99 335.93 263.99 330.2 263.99 324.48" fill="none" mix-blend-mode="multiply" opacity=".5" stroke="#000" stroke-miterlimit="10" stroke-width=".25"/>
      <polygon id="stitch15.11" points="242.86 324.48 248.14 324.48 253.42 324.48 258.71 324.48 263.99 324.48 263.99 330.2 263.99 335.93 263.99 341.65 263.99 347.38 258.71 347.38 253.42 347.38 248.14 347.38 242.86 347.38 242.86 341.65 242.86 335.93 242.86 330.2 242.86 324.48" fill="none" mix-blend-mode="multiply" opacity=".5" stroke="#000" stroke-miterlimit="10" stroke-width=".25"/>
      <polygon id="stitch15.10" points="221.73 324.48 227.01 324.48 232.29 324.48 237.58 324.48 242.86 324.48 242.86 330.2 242.86 335.93 242.86 341.65 242.86 347.38 237.58 347.38 232.29 347.38 227.01 347.38 221.73 347.38 221.73 341.65 221.73 335.93 221.73 330.2 221.73 324.48" fill="none" mix-blend-mode="multiply" opacity=".5" stroke="#000" stroke-miterlimit="10" stroke-width=".25"/>
      <polygon id="stitch15.9" points="200.6 324.48 205.88 324.48 211.17 324.48 216.45 324.48 221.73 324.48 221.73 330.2 221.73 335.93 221.73 341.65 221.73 347.38 216.45 347.38 211.17 347.38 205.88 347.38 200.6 347.38 200.6 341.65 200.6 335.93 200.6 330.2 200.6 324.48" fill="none" mix-blend-mode="multiply" opacity=".5" stroke="#000" stroke-miterlimit="10" stroke-width=".25"/>
      <polygon id="stitch15.8" points="179.47 324.48 184.75 324.48 190.04 324.48 195.32 324.48 200.6 324.48 200.6 330.2 200.6 335.93 200.6 341.65 200.6 347.38 195.32 347.38 190.04 347.38 184.75 347.38 179.47 347.38 179.47 341.65 179.47 335.93 179.47 330.2 179.47 324.48" fill="none" mix-blend-mode="multiply" opacity=".5" stroke="#000" stroke-miterlimit="10" stroke-width=".25"/>
      <polygon id="stitch15.7" points="158.34 324.48 163.63 324.48 168.91 324.48 174.19 324.48 179.47 324.48 179.47 330.2 179.47 335.93 179.47 341.65 179.47 347.38 174.19 347.38 168.91 347.38 163.63 347.38 158.34 347.38 158.34 341.65 158.34 335.93 158.34 330.2 158.34 324.48" fill="none" mix-blend-mode="multiply" opacity=".5" stroke="#000" stroke-miterlimit="10" stroke-width=".25"/>
      <polygon id="stitch15.6" points="137.21 324.48 142.5 324.48 147.78 324.48 153.06 324.48 158.34 324.48 158.34 330.2 158.34 335.93 158.34 341.65 158.34 347.38 153.06 347.38 147.78 347.38 142.5 347.38 137.21 347.38 137.21 341.65 137.21 335.93 137.21 330.2 137.21 324.48" fill="none" mix-blend-mode="multiply" opacity=".5" stroke="#000" stroke-miterlimit="10" stroke-width=".25"/>
      <polygon id="stitch15.5" points="116.09 324.48 121.37 324.48 126.65 324.48 131.93 324.48 137.21 324.48 137.21 330.2 137.21 335.93 137.21 341.65 137.21 347.38 131.93 347.38 126.65 347.38 121.37 347.38 116.09 347.38 116.09 341.65 116.09 335.93 116.09 330.2 116.09 324.48" fill="none" mix-blend-mode="multiply" opacity=".5" stroke="#000" stroke-miterlimit="10" stroke-width=".25"/>
      <polygon id="stitch15.4" points="94.96 324.48 100.24 324.48 105.52 324.48 110.8 324.48 116.09 324.48 116.09 330.2 116.09 335.93 116.09 341.65 116.09 347.38 110.8 347.38 105.52 347.38 100.24 347.38 94.96 347.38 94.96 341.65 94.96 335.93 94.96 330.2 94.96 324.48" fill="none" mix-blend-mode="multiply" opacity=".5" stroke="#000" stroke-miterlimit="10" stroke-width=".25"/>
      <polygon id="stitch15.3" points="73.83 324.48 79.11 324.48 84.39 324.48 89.67 324.48 94.96 324.48 94.96 330.2 94.96 335.93 94.96 341.65 94.96 347.38 89.67 347.38 84.39 347.38 79.11 347.38 73.83 347.38 73.83 341.65 73.83 335.93 73.83 330.2 73.83 324.48" fill="none" mix-blend-mode="multiply" opacity=".5" stroke="#000" stroke-miterlimit="10" stroke-width=".25"/>
      <polygon id="stitch15.2" points="52.7 324.48 57.98 324.48 63.26 324.48 68.54 324.48 73.83 324.48 73.83 330.2 73.83 335.93 73.83 341.65 73.83 347.38 68.54 347.38 63.26 347.38 57.66 349.41 48.93 345.94 51.11 341.7 52.7 335.93 52.7 330.2 52.7 324.48" fill="none" mix-blend-mode="multiply" opacity=".5" stroke="#000" stroke-miterlimit="10" stroke-width=".25"/>
      <polygon id="stitch15.1" points="33.92 331.6 36.29 329.65 42.95 325.84 47.42 324.48 52.7 324.48 52.7 330.2 52.7 335.93 51.11 341.7 48.93 345.94 46.47 346.78 43.59 347.73 39.6 348.57 35.78 349.88 30.72 349.37 29.46 344.33 31.58 335.93 33.92 331.6" fill="none" mix-blend-mode="multiply" opacity=".5" stroke="#000" stroke-miterlimit="10" stroke-width=".25"/>
    </g>
    <g id="row14">
      <polygon id="stitch14.16" points="348.5 304.38 353.79 304.38 359.07 304.38 364.35 304.38 369.63 304.38 369.63 309.41 369.63 314.43 369.63 319.46 369.63 324.48 364.35 324.48 359.07 324.48 353.79 324.48 348.5 324.48 348.5 319.46 348.5 314.43 348.5 309.41 348.5 304.38" fill="none" mix-blend-mode="multiply" opacity=".5" stroke="#000" stroke-miterlimit="10" stroke-width=".25"/>
      <polygon id="stitch14.15" points="327.38 304.38 332.66 304.38 337.94 304.38 343.22 304.38 348.5 304.38 348.5 309.41 348.5 314.43 348.5 319.46 348.5 324.48 343.22 324.48 337.94 324.48 332.66 324.48 327.38 324.48 327.38 319.46 327.38 314.43 327.38 309.41 327.38 304.38" fill="none" mix-blend-mode="multiply" opacity=".5" stroke="#000" stroke-miterlimit="10" stroke-width=".25"/>
      <polygon id="stitch14.14" points="306.25 304.38 311.53 304.38 316.81 304.38 322.09 304.38 327.38 304.38 327.38 309.41 327.38 314.43 327.38 319.46 327.38 324.48 322.09 324.48 316.81 324.48 311.53 324.48 306.25 324.48 306.25 319.46 306.25 314.43 306.25 309.41 306.25 304.38" fill="none" mix-blend-mode="multiply" opacity=".5" stroke="#000" stroke-miterlimit="10" stroke-width=".25"/>
      <polygon id="stitch14.13" points="285.12 304.38 290.4 304.38 295.68 304.38 300.96 304.38 306.25 304.38 306.25 309.41 306.25 314.43 306.25 319.46 306.25 324.48 300.96 324.48 295.68 324.48 290.4 324.48 285.12 324.48 285.12 319.46 285.12 314.43 285.12 309.41 285.12 304.38" fill="none" mix-blend-mode="multiply" opacity=".5" stroke="#000" stroke-miterlimit="10" stroke-width=".25"/>
      <polygon id="stitch14.12" points="263.99 304.38 269.27 304.38 274.55 304.38 279.84 304.38 285.12 304.38 285.12 309.41 285.12 314.43 285.12 319.46 285.12 324.48 279.84 324.48 274.55 324.48 269.27 324.48 263.99 324.48 263.99 319.46 263.99 314.43 263.99 309.41 263.99 304.38" fill="none" mix-blend-mode="multiply" opacity=".5" stroke="#000" stroke-miterlimit="10" stroke-width=".25"/>
      <polygon id="stitch14.11" points="242.86 304.38 248.14 304.38 253.42 304.38 258.71 304.38 263.99 304.38 263.99 309.41 263.99 314.43 263.99 319.46 263.99 324.48 258.71 324.48 253.42 324.48 248.14 324.48 242.86 324.48 242.86 319.46 242.86 314.43 242.86 309.41 242.86 304.38" fill="none" mix-blend-mode="multiply" opacity=".5" stroke="#000" stroke-miterlimit="10" stroke-width=".25"/>
      <polygon id="stitch14.10" points="221.73 304.38 227.01 304.38 232.29 304.38 237.58 304.38 242.86 304.38 242.86 309.41 242.86 314.43 242.86 319.46 242.86 324.48 237.58 324.48 232.29 324.48 227.01 324.48 221.73 324.48 221.73 319.46 221.73 314.43 221.73 309.41 221.73 304.38" fill="none" mix-blend-mode="multiply" opacity=".5" stroke="#000" stroke-miterlimit="10" stroke-width=".25"/>
      <polygon id="stitch14.9" points="200.6 304.38 205.88 304.38 211.17 304.38 216.45 304.38 221.73 304.38 221.73 309.41 221.73 314.43 221.73 319.46 221.73 324.48 216.45 324.48 211.17 324.48 205.88 324.48 200.6 324.48 200.6 319.46 200.6 314.43 200.6 309.41 200.6 304.38" fill="none" mix-blend-mode="multiply" opacity=".5" stroke="#000" stroke-miterlimit="10" stroke-width=".25"/>
      <polygon id="stitch14.8" points="179.47 304.38 184.75 304.38 190.04 304.38 195.32 304.38 200.6 304.38 200.6 309.41 200.6 314.43 200.6 319.46 200.6 324.48 195.32 324.48 190.04 324.48 184.75 324.48 179.47 324.48 179.47 319.46 179.47 314.43 179.47 309.41 179.47 304.38" fill="none" mix-blend-mode="multiply" opacity=".5" stroke="#000" stroke-miterlimit="10" stroke-width=".25"/>
      <polygon id="stitch14.7" points="158.34 304.38 163.63 304.38 168.91 304.38 174.19 304.38 179.47 304.38 179.47 309.41 179.47 314.43 179.47 319.46 179.47 324.48 174.19 324.48 168.91 324.48 163.63 324.48 158.34 324.48 158.34 319.46 158.34 314.43 158.34 309.41 158.34 304.38" fill="none" mix-blend-mode="multiply" opacity=".5" stroke="#000" stroke-miterlimit="10" stroke-width=".25"/>
      <polygon id="stitch14.6" points="137.21 304.38 142.5 304.38 147.78 304.38 153.06 304.38 158.34 304.38 158.34 309.41 158.34 314.43 158.34 319.46 158.34 324.48 153.06 324.48 147.78 324.48 142.5 324.48 137.21 324.48 137.21 319.46 137.21 314.43 137.21 309.41 137.21 304.38" fill="none" mix-blend-mode="multiply" opacity=".5" stroke="#000" stroke-miterlimit="10" stroke-width=".25"/>
      <polygon id="stitch14.5" points="116.09 304.38 121.37 304.38 126.65 304.38 131.93 304.38 137.21 304.38 137.21 309.41 137.21 314.43 137.21 319.46 137.21 324.48 131.93 324.48 126.65 324.48 121.37 324.48 116.09 324.48 116.09 319.46 116.09 314.43 116.09 309.41 116.09 304.38" fill="none" mix-blend-mode="multiply" opacity=".5" stroke="#000" stroke-miterlimit="10" stroke-width=".25"/>
      <polygon id="stitch14.4" points="94.96 304.38 100.24 304.38 105.52 304.38 110.8 304.38 116.09 304.38 116.09 309.41 116.09 314.43 116.09 319.46 116.09 324.48 110.8 324.48 105.52 324.48 100.24 324.48 94.96 324.48 94.96 319.46 94.96 314.43 94.96 309.41 94.96 304.38" fill="none" mix-blend-mode="multiply" opacity=".5" stroke="#000" stroke-miterlimit="10" stroke-width=".25"/>
      <polygon id="stitch14.3" points="73.83 304.38 79.11 304.38 84.39 304.38 89.67 304.38 94.96 304.38 94.96 309.41 94.96 314.43 94.96 319.46 94.96 324.48 89.67 324.48 84.39 324.48 79.11 324.48 73.83 324.48 73.83 319.46 73.83 314.43 73.83 309.41 73.83 304.38" fill="none" mix-blend-mode="multiply" opacity=".5" stroke="#000" stroke-miterlimit="10" stroke-width=".25"/>
      <polygon id="stitch14.2" points="51.11 303.49 57.98 304.38 63.26 304.38 68.54 304.38 73.83 304.38 73.83 309.41 73.83 314.43 73.83 319.46 73.83 324.48 68.54 324.48 63.26 324.48 57.98 324.48 52.7 324.48 52.7 319.46 52.7 314.43 52.7 309.41 51.11 303.49" fill="none" mix-blend-mode="multiply" opacity=".5" stroke="#000" stroke-miterlimit="10" stroke-width=".25"/>
      <polygon id="stitch14.1" points="35.65 309.98 39.09 307.12 41.71 305.34 47.42 304.38 51.11 303.49 52.7 309.41 52.7 314.43 52.7 319.46 52.7 324.48 47.42 324.48 42.95 325.84 36.29 329.65 33.92 331.6 30.52 328 30.1 319.31 32.72 313.99 35.65 309.98" fill="none" mix-blend-mode="multiply" opacity=".5" stroke="#000" stroke-miterlimit="10" stroke-width=".25"/>
    </g>
    <g id="row13">
      <polygon id="stitch13.16" points="348.5 283.14 353.79 283.14 359.07 283.14 364.35 283.14 369.63 283.14 369.63 288.45 369.63 293.76 369.63 299.07 369.63 304.38 364.35 304.38 359.07 304.38 353.79 304.38 348.5 304.38 348.5 299.07 348.5 293.76 348.5 288.45 348.5 283.14" fill="none" mix-blend-mode="multiply" opacity=".5" stroke="#000" stroke-miterlimit="10" stroke-width=".25"/>
      <polygon id="stitch13.15" points="327.38 283.14 332.66 283.14 337.94 283.14 343.22 283.14 348.5 283.14 348.5 288.45 348.5 293.76 348.5 299.07 348.5 304.38 343.22 304.38 337.94 304.38 332.66 304.38 327.38 304.38 327.38 299.07 327.38 293.76 327.38 288.45 327.38 283.14" fill="none" mix-blend-mode="multiply" opacity=".5" stroke="#000" stroke-miterlimit="10" stroke-width=".25"/>
      <polygon id="stitch13.14" points="306.25 283.14 311.53 283.14 316.81 283.14 322.09 283.14 327.38 283.14 327.38 288.45 327.38 293.76 327.38 299.07 327.38 304.38 322.09 304.38 316.81 304.38 311.53 304.38 306.25 304.38 306.25 299.07 306.25 293.76 306.25 288.45 306.25 283.14" fill="none" mix-blend-mode="multiply" opacity=".5" stroke="#000" stroke-miterlimit="10" stroke-width=".25"/>
      <polygon id="stitch13.13" points="285.12 283.14 290.4 283.14 295.68 283.14 300.96 283.14 306.25 283.14 306.25 288.45 306.25 293.76 306.25 299.07 306.25 304.38 300.96 304.38 295.68 304.38 290.4 304.38 285.12 304.38 285.12 299.07 285.12 293.76 285.12 288.45 285.12 283.14" fill="none" mix-blend-mode="multiply" opacity=".5" stroke="#000" stroke-miterlimit="10" stroke-width=".25"/>
      <polygon id="stitch13.12" points="263.99 283.14 269.27 283.14 274.55 283.14 279.84 283.14 285.12 283.14 285.12 288.45 285.12 293.76 285.12 299.07 285.12 304.38 279.84 304.38 274.55 304.38 269.27 304.38 263.99 304.38 263.99 299.07 263.99 293.76 263.99 288.45 263.99 283.14" fill="none" mix-blend-mode="multiply" opacity=".5" stroke="#000" stroke-miterlimit="10" stroke-width=".25"/>
      <polygon id="stitch13.11" points="242.86 283.14 248.14 283.14 253.42 283.14 258.71 283.14 263.99 283.14 263.99 288.45 263.99 293.76 263.99 299.07 263.99 304.38 258.71 304.38 253.42 304.38 248.14 304.38 242.86 304.38 242.86 299.07 242.86 293.76 242.86 288.45 242.86 283.14" fill="none" mix-blend-mode="multiply" opacity=".5" stroke="#000" stroke-miterlimit="10" stroke-width=".25"/>
      <polygon id="stitch13.10" points="221.73 283.14 227.01 283.14 232.29 283.14 237.58 283.14 242.86 283.14 242.86 288.45 242.86 293.76 242.86 299.07 242.86 304.38 237.58 304.38 232.29 304.38 227.01 304.38 221.73 304.38 221.73 299.07 221.73 293.76 221.73 288.45 221.73 283.14" fill="none" mix-blend-mode="multiply" opacity=".5" stroke="#000" stroke-miterlimit="10" stroke-width=".25"/>
      <polygon id="stitch13.9" points="200.6 283.14 205.88 283.14 211.17 283.14 216.45 283.14 221.73 283.14 221.73 288.45 221.73 293.76 221.73 299.07 221.73 304.38 216.45 304.38 211.17 304.38 205.88 304.38 200.6 304.38 200.6 299.07 200.6 293.76 200.6 288.45 200.6 283.14" fill="none" mix-blend-mode="multiply" opacity=".5" stroke="#000" stroke-miterlimit="10" stroke-width=".25"/>
      <polygon id="stitch13.8" points="179.47 283.14 184.75 283.14 190.04 283.14 195.32 283.14 200.6 283.14 200.6 288.45 200.6 293.76 200.6 299.07 200.6 304.38 195.32 304.38 190.04 304.38 184.75 304.38 179.47 304.38 179.47 299.07 179.47 293.76 179.47 288.45 179.47 283.14" fill="none" mix-blend-mode="multiply" opacity=".5" stroke="#000" stroke-miterlimit="10" stroke-width=".25"/>
      <polygon id="stitch13.7" points="158.34 283.14 163.63 283.14 168.91 283.14 174.19 283.14 179.47 283.14 179.47 288.45 179.47 293.76 179.47 299.07 179.47 304.38 174.19 304.38 168.91 304.38 163.63 304.38 158.34 304.38 158.34 299.07 158.34 293.76 158.34 288.45 158.34 283.14" fill="none" mix-blend-mode="multiply" opacity=".5" stroke="#000" stroke-miterlimit="10" stroke-width=".25"/>
      <polygon id="stitch13.6" points="137.21 283.14 142.5 283.14 147.78 283.14 153.06 283.14 158.34 283.14 158.34 288.45 158.34 293.76 158.34 299.07 158.34 304.38 153.06 304.38 147.78 304.38 142.5 304.38 137.21 304.38 137.21 299.07 137.21 293.76 137.21 288.45 137.21 283.14" fill="none" mix-blend-mode="multiply" opacity=".5" stroke="#000" stroke-miterlimit="10" stroke-width=".25"/>
      <polygon id="stitch13.5" points="116.09 283.14 121.37 283.14 126.65 283.14 131.93 283.14 137.21 283.14 137.21 288.45 137.21 293.76 137.21 299.07 137.21 304.38 131.93 304.38 126.65 304.38 121.37 304.38 116.09 304.38 116.09 299.07 116.09 293.76 116.09 288.45 116.09 283.14" fill="none" mix-blend-mode="multiply" opacity=".5" stroke="#000" stroke-miterlimit="10" stroke-width=".25"/>
      <polygon id="stitch13.4" points="94.96 283.14 100.24 283.14 105.52 283.14 110.8 283.14 116.09 283.14 116.09 288.45 116.09 293.76 116.09 299.07 116.09 304.38 110.8 304.38 105.52 304.38 100.24 304.38 94.96 304.38 94.96 299.07 94.96 293.76 94.96 288.45 94.96 283.14" fill="none" mix-blend-mode="multiply" opacity=".5" stroke="#000" stroke-miterlimit="10" stroke-width=".25"/>
      <polygon id="stitch13.3" points="73.83 283.14 79.11 283.14 84.39 283.14 89.67 283.14 94.96 283.14 94.96 288.45 94.96 293.76 94.96 299.07 94.96 304.38 89.67 304.38 84.39 304.38 79.11 304.38 73.83 304.38 73.83 299.07 73.83 293.76 73.83 288.45 73.83 283.14" fill="none" mix-blend-mode="multiply" opacity=".5" stroke="#000" stroke-miterlimit="10" stroke-width=".25"/>
      <polygon id="stitch13.2" points="49.84 281.04 56.96 285.82 63.26 283.14 68.54 283.14 73.83 283.14 73.83 288.45 73.83 293.76 73.83 299.07 73.83 304.38 68.54 304.38 63.26 304.38 57.98 304.38 51.11 303.49 52.7 299.07 54.8 291.22 56.96 285.82 49.84 281.04" fill="none" mix-blend-mode="multiply" opacity=".5" stroke="#000" stroke-miterlimit="10" stroke-width=".25"/>
      <polygon id="stitch13.1" points="34.32 288.61 38.39 284.6 42.13 283.14 46.34 282.18 49.84 281.04 56.96 285.82 54.8 291.22 52.7 299.07 51.11 303.49 47.42 304.38 41.71 305.34 39.09 307.12 35.65 309.98 29.51 306.14 29.07 298.05 31.96 291.69 34.32 288.61" fill="none" mix-blend-mode="multiply" opacity=".5" stroke="#000" stroke-miterlimit="10" stroke-width=".25"/>
    </g>
    <g id="row12">
      <polygon id="stitch12.16" points="348.5 263.55 353.79 263.55 359.07 263.55 364.35 263.55 369.63 263.55 369.63 268.44 369.63 273.34 369.63 278.24 369.63 283.14 364.35 283.14 359.07 283.14 353.79 283.14 348.5 283.14 348.5 278.24 348.5 273.34 348.5 268.44 348.5 263.55" fill="none" mix-blend-mode="multiply" opacity=".5" stroke="#000" stroke-miterlimit="10" stroke-width=".25"/>
      <polygon id="stitch12.15" points="327.38 263.55 332.66 263.55 337.94 263.55 343.22 263.55 348.5 263.55 348.5 268.44 348.5 273.34 348.5 278.24 348.5 283.14 343.22 283.14 337.94 283.14 332.66 283.14 327.38 283.14 327.38 278.24 327.38 273.34 327.38 268.44 327.38 263.55" fill="none" mix-blend-mode="multiply" opacity=".5" stroke="#000" stroke-miterlimit="10" stroke-width=".25"/>
      <polygon id="stitch12.14" points="306.25 263.55 311.53 263.55 316.81 263.55 322.09 263.55 327.38 263.55 327.38 268.44 327.38 273.34 327.38 278.24 327.38 283.14 322.09 283.14 316.81 283.14 311.53 283.14 306.25 283.14 306.25 278.24 306.25 273.34 306.25 268.44 306.25 263.55" fill="none" mix-blend-mode="multiply" opacity=".5" stroke="#000" stroke-miterlimit="10" stroke-width=".25"/>
      <polygon id="stitch12.13" points="285.12 263.55 290.4 263.55 295.68 263.55 300.96 263.55 306.25 263.55 306.25 268.44 306.25 273.34 306.25 278.24 306.25 283.14 300.96 283.14 295.68 283.14 290.4 283.14 285.12 283.14 285.12 278.24 285.12 273.34 285.12 268.44 285.12 263.55" fill="none" mix-blend-mode="multiply" opacity=".5" stroke="#000" stroke-miterlimit="10" stroke-width=".25"/>
      <polygon id="stitch12.12" points="263.99 263.55 269.27 263.55 274.55 263.55 279.84 263.55 285.12 263.55 285.12 268.44 285.12 273.34 285.12 278.24 285.12 283.14 279.84 283.14 274.55 283.14 269.27 283.14 263.99 283.14 263.99 278.24 263.99 273.34 263.99 268.44 263.99 263.55" fill="none" mix-blend-mode="multiply" opacity=".5" stroke="#000" stroke-miterlimit="10" stroke-width=".25"/>
      <polygon id="stitch12.11" points="242.86 263.55 248.14 263.55 253.42 263.55 258.71 263.55 263.99 263.55 263.99 268.44 263.99 273.34 263.99 278.24 263.99 283.14 258.71 283.14 253.42 283.14 248.14 283.14 242.86 283.14 242.86 278.24 242.86 273.34 242.86 268.44 242.86 263.55" fill="none" mix-blend-mode="multiply" opacity=".5" stroke="#000" stroke-miterlimit="10" stroke-width=".25"/>
      <polygon id="stitch12.10" points="221.73 263.55 227.01 263.55 232.29 263.55 237.58 263.55 242.86 263.55 242.86 268.44 242.86 273.34 242.86 278.24 242.86 283.14 237.58 283.14 232.29 283.14 227.01 283.14 221.73 283.14 221.73 278.24 221.73 273.34 221.73 268.44 221.73 263.55" fill="none" mix-blend-mode="multiply" opacity=".5" stroke="#000" stroke-miterlimit="10" stroke-width=".25"/>
      <polygon id="stitch12.9" points="200.6 263.55 205.88 263.55 211.17 263.55 216.45 263.55 221.73 263.55 221.73 268.44 221.73 273.34 221.73 278.24 221.73 283.14 216.45 283.14 211.17 283.14 205.88 283.14 200.6 283.14 200.6 278.24 200.6 273.34 200.6 268.44 200.6 263.55" fill="none" mix-blend-mode="multiply" opacity=".5" stroke="#000" stroke-miterlimit="10" stroke-width=".25"/>
      <polygon id="stitch12.8" points="179.47 263.55 184.75 263.55 190.04 263.55 195.32 263.55 200.6 263.55 200.6 268.44 200.6 273.34 200.6 278.24 200.6 283.14 195.32 283.14 190.04 283.14 184.75 283.14 179.47 283.14 179.47 278.24 179.47 273.34 179.47 268.44 179.47 263.55" fill="none" mix-blend-mode="multiply" opacity=".5" stroke="#000" stroke-miterlimit="10" stroke-width=".25"/>
      <polygon id="stitch12.7" points="158.34 263.55 163.63 263.55 168.91 263.55 174.19 263.55 179.47 263.55 179.47 268.44 179.47 273.34 179.47 278.24 179.47 283.14 174.19 283.14 168.91 283.14 163.63 283.14 158.34 283.14 158.34 278.24 158.34 273.34 158.34 268.44 158.34 263.55" fill="none" mix-blend-mode="multiply" opacity=".5" stroke="#000" stroke-miterlimit="10" stroke-width=".25"/>
      <polygon id="stitch12.6" points="137.21 263.55 142.5 263.55 147.78 263.55 153.06 263.55 158.34 263.55 158.34 268.44 158.34 273.34 158.34 278.24 158.34 283.14 153.06 283.14 147.78 283.14 142.5 283.14 137.21 283.14 137.21 278.24 137.21 273.34 137.21 268.44 137.21 263.55" fill="none" mix-blend-mode="multiply" opacity=".5" stroke="#000" stroke-miterlimit="10" stroke-width=".25"/>
      <polygon id="stitch12.5" points="116.09 263.55 121.37 263.55 126.65 263.55 131.93 263.55 137.21 263.55 137.21 268.44 137.21 273.34 137.21 278.24 137.21 283.14 131.93 283.14 126.65 283.14 121.37 283.14 116.09 283.14 116.09 278.24 116.09 273.34 116.09 268.44 116.09 263.55" fill="none" mix-blend-mode="multiply" opacity=".5" stroke="#000" stroke-miterlimit="10" stroke-width=".25"/>
      <polygon id="stitch12.4" points="94.96 263.55 100.24 263.55 105.52 263.55 110.8 263.55 116.09 263.55 116.09 268.44 116.09 273.34 116.09 278.24 116.09 283.14 110.8 283.14 105.52 283.14 100.24 283.14 94.96 283.14 94.96 278.24 94.96 273.34 94.96 268.44 94.96 263.55" fill="none" mix-blend-mode="multiply" opacity=".5" stroke="#000" stroke-miterlimit="10" stroke-width=".25"/>
      <polygon id="stitch12.3" points="73.83 263.55 79.11 263.55 84.39 263.55 89.67 263.55 94.96 263.55 94.96 268.44 94.96 273.34 94.96 278.24 94.96 283.14 89.67 283.14 84.39 283.14 79.11 283.14 73.83 283.14 73.83 278.24 73.83 273.34 73.83 268.44 73.83 263.55" fill="none" mix-blend-mode="multiply" opacity=".5" stroke="#000" stroke-miterlimit="10" stroke-width=".25"/>
      <polygon id="stitch12.2" points="57.98 266.92 62.21 265.77 65.42 263.55 68.54 263.55 73.83 263.55 73.83 268.44 73.83 273.34 73.83 278.24 73.83 283.14 68.54 283.14 63.26 283.14 56.96 285.82 49.84 281.04 52.7 278.24 54.78 272.65 57.15 269.53 57.98 266.92" fill="none" mix-blend-mode="multiply" opacity=".5" stroke="#000" stroke-miterlimit="10" stroke-width=".25"/>
      <polygon id="stitch12.1" points="37.5 268.67 40.04 266.79 44.18 263.8 49.33 262.15 57.98 266.92 57.15 269.53 54.78 272.65 52.7 278.24 49.84 281.04 46.34 282.18 42.13 283.14 38.39 284.6 34.32 288.61 31.46 289.04 29.45 281.87 32.44 274.46 37.5 268.67" fill="none" mix-blend-mode="multiply" opacity=".5" stroke="#000" stroke-miterlimit="10" stroke-width=".25"/>
    </g>
    <g id="row11">
      <polygon id="stitch11.16" points="348.5 242.33 353.79 242.33 359.07 242.33 364.35 242.33 369.63 242.33 369.63 247.64 369.63 252.94 369.63 258.24 369.63 263.55 364.35 263.55 359.07 263.55 353.79 263.55 348.5 263.55 348.5 258.24 348.5 252.94 348.5 247.64 348.5 242.33" fill="none" mix-blend-mode="multiply" opacity=".5" stroke="#000" stroke-miterlimit="10" stroke-width=".25"/>
      <polygon id="stitch11.15" points="327.38 242.33 332.66 242.33 337.94 242.33 343.22 242.33 348.5 242.33 348.5 247.64 348.5 252.94 348.5 258.24 348.5 263.55 343.22 263.55 337.94 263.55 332.66 263.55 327.38 263.55 327.38 258.24 327.38 252.94 327.38 247.64 327.38 242.33" fill="none" mix-blend-mode="multiply" opacity=".5" stroke="#000" stroke-miterlimit="10" stroke-width=".25"/>
      <polygon id="stitch11.14" points="306.25 242.33 311.53 242.33 316.81 242.33 322.09 242.33 327.38 242.33 327.38 247.64 327.38 252.94 327.38 258.24 327.38 263.55 322.09 263.55 316.81 263.55 311.53 263.55 306.25 263.55 306.25 258.24 306.25 252.94 306.25 247.64 306.25 242.33" fill="none" mix-blend-mode="multiply" opacity=".5" stroke="#000" stroke-miterlimit="10" stroke-width=".25"/>
      <polygon id="stitch11.13" points="285.12 242.33 290.4 242.33 295.68 242.33 300.96 242.33 306.25 242.33 306.25 247.64 306.25 252.94 306.25 258.24 306.25 263.55 300.96 263.55 295.68 263.55 290.4 263.55 285.12 263.55 285.12 258.24 285.12 252.94 285.12 247.64 285.12 242.33" fill="none" mix-blend-mode="multiply" opacity=".5" stroke="#000" stroke-miterlimit="10" stroke-width=".25"/>
      <polygon id="stitch11.12" points="263.99 242.33 269.27 242.33 274.55 242.33 279.84 242.33 285.12 242.33 285.12 247.64 285.12 252.94 285.12 258.24 285.12 263.55 279.84 263.55 274.55 263.55 269.27 263.55 263.99 263.55 263.99 258.24 263.99 252.94 263.99 247.64 263.99 242.33" fill="none" mix-blend-mode="multiply" opacity=".5" stroke="#000" stroke-miterlimit="10" stroke-width=".25"/>
      <polygon id="stitch11.11" points="242.86 242.33 248.14 242.33 253.42 242.33 258.71 242.33 263.99 242.33 263.99 247.64 263.99 252.94 263.99 258.24 263.99 263.55 258.71 263.55 253.42 263.55 248.14 263.55 242.86 263.55 242.86 258.24 242.86 252.94 242.86 247.64 242.86 242.33" fill="none" mix-blend-mode="multiply" opacity=".5" stroke="#000" stroke-miterlimit="10" stroke-width=".25"/>
      <polygon id="stitch11.10" points="221.73 242.33 227.01 242.33 232.29 242.33 237.58 242.33 242.86 242.33 242.86 247.64 242.86 252.94 242.86 258.24 242.86 263.55 237.58 263.55 232.29 263.55 227.01 263.55 221.73 263.55 221.73 258.24 221.73 252.94 221.73 247.64 221.73 242.33" fill="none" mix-blend-mode="multiply" opacity=".5" stroke="#000" stroke-miterlimit="10" stroke-width=".25"/>
      <polygon id="stitch11.9" points="200.6 242.33 205.88 242.33 211.17 242.33 216.45 242.33 221.73 242.33 221.73 247.64 221.73 252.94 221.73 258.24 221.73 263.55 216.45 263.55 211.17 263.55 205.88 263.55 200.6 263.55 200.6 258.24 200.6 252.94 200.6 247.64 200.6 242.33" fill="none" mix-blend-mode="multiply" opacity=".5" stroke="#000" stroke-miterlimit="10" stroke-width=".25"/>
      <polygon id="stitch11.8" points="179.47 242.33 184.75 242.33 190.04 242.33 195.32 242.33 200.6 242.33 200.6 247.64 200.6 252.94 200.6 258.24 200.6 263.55 195.32 263.55 190.04 263.55 184.75 263.55 179.47 263.55 179.47 258.24 179.47 252.94 179.47 247.64 179.47 242.33" fill="none" mix-blend-mode="multiply" opacity=".5" stroke="#000" stroke-miterlimit="10" stroke-width=".25"/>
      <polygon id="stitch11.7" points="158.34 242.33 163.63 242.33 168.91 242.33 174.19 242.33 179.47 242.33 179.47 247.64 179.47 252.94 179.47 258.24 179.47 263.55 174.19 263.55 168.91 263.55 163.63 263.55 158.34 263.55 158.34 258.24 158.34 252.94 158.34 247.64 158.34 242.33" fill="none" mix-blend-mode="multiply" opacity=".5" stroke="#000" stroke-miterlimit="10" stroke-width=".25"/>
      <polygon id="stitch11.6" points="137.21 242.33 142.5 242.33 147.78 242.33 153.06 242.33 158.34 242.33 158.34 247.64 158.34 252.94 158.34 258.24 158.34 263.55 153.06 263.55 147.78 263.55 142.5 263.55 137.21 263.55 137.21 258.24 137.21 252.94 137.21 247.64 137.21 242.33" fill="none" mix-blend-mode="multiply" opacity=".5" stroke="#000" stroke-miterlimit="10" stroke-width=".25"/>
      <polygon id="stitch11.5" points="116.09 242.33 121.37 242.33 126.65 242.33 131.93 242.33 137.21 242.33 137.21 247.64 137.21 252.94 137.21 258.24 137.21 263.55 131.93 263.55 126.65 263.55 121.37 263.55 116.09 263.55 116.09 258.24 116.09 252.94 116.09 247.64 116.09 242.33" fill="none" mix-blend-mode="multiply" opacity=".5" stroke="#000" stroke-miterlimit="10" stroke-width=".25"/>
      <polygon id="stitch11.4" points="94.96 242.33 100.24 242.33 105.52 242.33 110.8 242.33 116.09 242.33 116.09 247.64 116.09 252.94 116.09 258.24 116.09 263.55 110.8 263.55 105.52 263.55 100.24 263.55 94.96 263.55 94.96 258.24 94.96 252.94 94.96 247.64 94.96 242.33" fill="none" mix-blend-mode="multiply" opacity=".5" stroke="#000" stroke-miterlimit="10" stroke-width=".25"/>
      <polygon id="stitch11.3" points="73.83 242.33 79.11 242.33 84.39 242.33 89.67 242.33 94.96 242.33 94.96 247.64 94.96 252.94 94.96 258.24 94.96 263.55 89.67 263.55 84.39 263.55 79.11 263.55 73.83 263.55 73.83 258.24 73.83 252.94 73.83 247.64 73.83 242.33" fill="none" mix-blend-mode="multiply" opacity=".5" stroke="#000" stroke-miterlimit="10" stroke-width=".25"/>
      <polygon id="stitch11.2" points="50.6 239.76 56.77 245.42 63.26 242.33 68.54 242.33 73.83 242.33 73.83 247.64 73.83 252.94 73.83 258.24 73.83 263.55 68.54 263.55 65.42 263.55 62.21 265.77 57.98 266.92 49.33 262.15 54.54 252.94 56.77 245.42 50.6 239.76" fill="none" mix-blend-mode="multiply" opacity=".5" stroke="#000" stroke-miterlimit="10" stroke-width=".25"/>
      <polygon id="stitch11.1" points="32.03 248.05 37.82 245.17 42.68 243.26 46.85 241.29 50.6 239.76 56.77 245.42 54.54 252.94 49.33 262.15 57.98 266.92 49.33 262.15 44.18 263.8 40.04 266.79 37.5 268.67 31.57 268.67 29.94 261.13 31.57 252.94 32.03 248.05" fill="none" mix-blend-mode="multiply" opacity=".5" stroke="#000" stroke-miterlimit="10" stroke-width=".25"/>
    </g>
    <g id="row10">
      <polygon id="stitch10.16" points="348.5 223.48 353.79 223.48 359.07 223.48 364.35 223.48 369.63 223.48 369.63 228.19 369.63 232.9 369.63 237.62 369.63 242.33 364.35 242.33 359.07 242.33 353.79 242.33 348.5 242.33 348.5 237.62 348.5 232.9 348.5 228.19 348.5 223.48" fill="none" mix-blend-mode="multiply" opacity=".5" stroke="#000" stroke-miterlimit="10" stroke-width=".25"/>
      <polygon id="stitch10.15" points="327.38 223.48 332.66 223.48 337.94 223.48 343.22 223.48 348.5 223.48 348.5 228.19 348.5 232.9 348.5 237.62 348.5 242.33 343.22 242.33 337.94 242.33 332.66 242.33 327.38 242.33 327.38 237.62 327.38 232.9 327.38 228.19 327.38 223.48" fill="none" mix-blend-mode="multiply" opacity=".5" stroke="#000" stroke-miterlimit="10" stroke-width=".25"/>
      <polygon id="stitch10.14" points="306.25 223.48 311.53 223.48 316.81 223.48 322.09 223.48 327.38 223.48 327.38 228.19 327.38 232.9 327.38 237.62 327.38 242.33 322.09 242.33 316.81 242.33 311.53 242.33 306.25 242.33 306.25 237.62 306.25 232.9 306.25 228.19 306.25 223.48" fill="none" mix-blend-mode="multiply" opacity=".5" stroke="#000" stroke-miterlimit="10" stroke-width=".25"/>
      <polygon id="stitch10.13" points="285.12 223.48 290.4 223.48 295.68 223.48 300.96 223.48 306.25 223.48 306.25 228.19 306.25 232.9 306.25 237.62 306.25 242.33 300.96 242.33 295.68 242.33 290.4 242.33 285.12 242.33 285.12 237.62 285.12 232.9 285.12 228.19 285.12 223.48" fill="none" mix-blend-mode="multiply" opacity=".5" stroke="#000" stroke-miterlimit="10" stroke-width=".25"/>
      <polygon id="stitch10.12" points="263.99 223.48 269.27 223.48 274.55 223.48 279.84 223.48 285.12 223.48 285.12 228.19 285.12 232.9 285.12 237.62 285.12 242.33 279.84 242.33 274.55 242.33 269.27 242.33 263.99 242.33 263.99 237.62 263.99 232.9 263.99 228.19 263.99 223.48" fill="none" mix-blend-mode="multiply" opacity=".5" stroke="#000" stroke-miterlimit="10" stroke-width=".25"/>
      <polygon id="stitch10.11" points="242.86 223.48 248.14 223.48 253.42 223.48 258.71 223.48 263.99 223.48 263.99 228.19 263.99 232.9 263.99 237.62 263.99 242.33 258.71 242.33 253.42 242.33 248.14 242.33 242.86 242.33 242.86 237.62 242.86 232.9 242.86 228.19 242.86 223.48" fill="none" mix-blend-mode="multiply" opacity=".5" stroke="#000" stroke-miterlimit="10" stroke-width=".25"/>
      <polygon id="stitch10.10" points="221.73 223.48 227.01 223.48 232.29 223.48 237.58 223.48 242.86 223.48 242.86 228.19 242.86 232.9 242.86 237.62 242.86 242.33 237.58 242.33 232.29 242.33 227.01 242.33 221.73 242.33 221.73 237.62 221.73 232.9 221.73 228.19 221.73 223.48" fill="none" mix-blend-mode="multiply" opacity=".5" stroke="#000" stroke-miterlimit="10" stroke-width=".25"/>
      <polygon id="stitch10.9" points="200.6 223.48 205.88 223.48 211.17 223.48 216.45 223.48 221.73 223.48 221.73 228.19 221.73 232.9 221.73 237.62 221.73 242.33 216.45 242.33 211.17 242.33 205.88 242.33 200.6 242.33 200.6 237.62 200.6 232.9 200.6 228.19 200.6 223.48" fill="none" mix-blend-mode="multiply" opacity=".5" stroke="#000" stroke-miterlimit="10" stroke-width=".25"/>
      <polygon id="stitch10.8" points="179.47 223.48 184.75 223.48 190.04 223.48 195.32 223.48 200.6 223.48 200.6 228.19 200.6 232.9 200.6 237.62 200.6 242.33 195.32 242.33 190.04 242.33 184.75 242.33 179.47 242.33 179.47 237.62 179.47 232.9 179.47 228.19 179.47 223.48" fill="none" mix-blend-mode="multiply" opacity=".5" stroke="#000" stroke-miterlimit="10" stroke-width=".25"/>
      <polygon id="stitch10.7" points="158.34 223.48 163.63 223.48 168.91 223.48 174.19 223.48 179.47 223.48 179.47 228.19 179.47 232.9 179.47 237.62 179.47 242.33 174.19 242.33 168.91 242.33 163.63 242.33 158.34 242.33 158.34 237.62 158.34 232.9 158.34 228.19 158.34 223.48" fill="none" mix-blend-mode="multiply" opacity=".5" stroke="#000" stroke-miterlimit="10" stroke-width=".25"/>
      <polygon id="stitch10.6" points="137.21 223.48 142.5 223.48 147.78 223.48 153.06 223.48 158.34 223.48 158.34 228.19 158.34 232.9 158.34 237.62 158.34 242.33 153.06 242.33 147.78 242.33 142.5 242.33 137.21 242.33 137.21 237.62 137.21 232.9 137.21 228.19 137.21 223.48" fill="none" mix-blend-mode="multiply" opacity=".5" stroke="#000" stroke-miterlimit="10" stroke-width=".25"/>
      <polygon id="stitch10.5" points="116.09 223.48 121.37 223.48 126.65 223.48 131.93 223.48 137.21 223.48 137.21 228.19 137.21 232.9 137.21 237.62 137.21 242.33 131.93 242.33 126.65 242.33 121.37 242.33 116.09 242.33 116.09 237.62 116.09 232.9 116.09 228.19 116.09 223.48" fill="none" mix-blend-mode="multiply" opacity=".5" stroke="#000" stroke-miterlimit="10" stroke-width=".25"/>
      <polygon id="stitch10.4" points="94.96 223.48 100.24 223.48 105.52 223.48 110.8 223.48 116.09 223.48 116.09 228.19 116.09 232.9 116.09 237.62 116.09 242.33 110.8 242.33 105.52 242.33 100.24 242.33 94.96 242.33 94.96 237.62 94.96 232.9 94.96 228.19 94.96 223.48" fill="none" mix-blend-mode="multiply" opacity=".5" stroke="#000" stroke-miterlimit="10" stroke-width=".25"/>
      <polygon id="stitch10.3" points="73.83 223.48 79.11 223.48 84.39 223.48 89.67 223.48 94.96 223.48 94.96 228.19 94.96 232.9 94.96 237.62 94.96 242.33 89.67 242.33 84.39 242.33 79.11 242.33 73.83 242.33 73.83 237.62 73.83 232.9 73.83 228.19 73.83 223.48" fill="none" mix-blend-mode="multiply" opacity=".5" stroke="#000" stroke-miterlimit="10" stroke-width=".25"/>
      <polygon id="stitch10.2" points="52.7 223.48 56.07 225.96 63.26 223.48 68.54 223.48 73.83 223.48 73.83 228.19 73.83 232.9 73.83 237.62 73.83 242.33 68.54 242.33 63.26 242.33 56.77 245.42 50.6 239.76 52.7 236.26 54.54 232.9 56.07 225.96 52.7 223.48" fill="none" mix-blend-mode="multiply" opacity=".5" stroke="#000" stroke-miterlimit="10" stroke-width=".25"/>
      <polygon id="stitch10.1" points="34.95 227.8 37.69 226.02 42.13 223.48 47.42 222.59 52.7 223.48 56.07 225.96 54.54 232.9 52.7 236.26 50.6 239.76 46.85 241.29 42.68 243.26 37.82 245.17 32.03 248.05 29.29 243.7 29.7 236.03 32.19 231.11 34.95 227.8" fill="none" mix-blend-mode="multiply" opacity=".5" stroke="#000" stroke-miterlimit="10" stroke-width=".25"/>
    </g>
    <g id="row9">
      <polygon id="stitch9.16" points="348.5 202.61 353.79 202.61 359.07 202.61 364.35 202.61 369.63 202.61 369.63 207.83 369.63 213.05 369.63 218.26 369.63 223.48 364.35 223.48 359.07 223.48 353.79 223.48 348.5 223.48 348.5 218.26 348.5 213.05 348.5 207.83 348.5 202.61" fill="none" mix-blend-mode="multiply" opacity=".5" stroke="#000" stroke-miterlimit="10" stroke-width=".25"/>
      <polygon id="stitch9.15" points="327.38 202.61 332.66 202.61 337.94 202.61 343.22 202.61 348.5 202.61 348.5 207.83 348.5 213.05 348.5 218.26 348.5 223.48 343.22 223.48 337.94 223.48 332.66 223.48 327.38 223.48 327.38 218.26 327.38 213.05 327.38 207.83 327.38 202.61" fill="none" mix-blend-mode="multiply" opacity=".5" stroke="#000" stroke-miterlimit="10" stroke-width=".25"/>
      <polygon id="stitch9.14" points="306.25 202.61 311.53 202.61 316.81 202.61 322.09 202.61 327.38 202.61 327.38 207.83 327.38 213.05 327.38 218.26 327.38 223.48 322.09 223.48 316.81 223.48 311.53 223.48 306.25 223.48 306.25 218.26 306.25 213.05 306.25 207.83 306.25 202.61" fill="none" mix-blend-mode="multiply" opacity=".5" stroke="#000" stroke-miterlimit="10" stroke-width=".25"/>
      <polygon id="stitch9.13" points="285.12 202.61 290.4 202.61 295.68 202.61 300.96 202.61 306.25 202.61 306.25 207.83 306.25 213.05 306.25 218.26 306.25 223.48 300.96 223.48 295.68 223.48 290.4 223.48 285.12 223.48 285.12 218.26 285.12 213.05 285.12 207.83 285.12 202.61" fill="none" mix-blend-mode="multiply" opacity=".5" stroke="#000" stroke-miterlimit="10" stroke-width=".25"/>
      <polygon id="stitch9.12" points="263.99 202.61 269.27 202.61 274.55 202.61 279.84 202.61 285.12 202.61 285.12 207.83 285.12 213.05 285.12 218.26 285.12 223.48 279.84 223.48 274.55 223.48 269.27 223.48 263.99 223.48 263.99 218.26 263.99 213.05 263.99 207.83 263.99 202.61" fill="none" mix-blend-mode="multiply" opacity=".5" stroke="#000" stroke-miterlimit="10" stroke-width=".25"/>
      <polygon id="stitch9.11" points="242.86 202.61 248.14 202.61 253.42 202.61 258.71 202.61 263.99 202.61 263.99 207.83 263.99 213.05 263.99 218.26 263.99 223.48 258.71 223.48 253.42 223.48 248.14 223.48 242.86 223.48 242.86 218.26 242.86 213.05 242.86 207.83 242.86 202.61" fill="none" mix-blend-mode="multiply" opacity=".5" stroke="#000" stroke-miterlimit="10" stroke-width=".25"/>
      <polygon id="stitch9.10" points="221.73 202.61 227.01 202.61 232.29 202.61 237.58 202.61 242.86 202.61 242.86 207.83 242.86 213.05 242.86 218.26 242.86 223.48 237.58 223.48 232.29 223.48 227.01 223.48 221.73 223.48 221.73 218.26 221.73 213.05 221.73 207.83 221.73 202.61" fill="none" mix-blend-mode="multiply" opacity=".5" stroke="#000" stroke-miterlimit="10" stroke-width=".25"/>
      <polygon id="stitch9.9" points="200.6 202.61 205.88 202.61 211.17 202.61 216.45 202.61 221.73 202.61 221.73 207.83 221.73 213.05 221.73 218.26 221.73 223.48 216.45 223.48 211.17 223.48 205.88 223.48 200.6 223.48 200.6 218.26 200.6 213.05 200.6 207.83 200.6 202.61" fill="none" mix-blend-mode="multiply" opacity=".5" stroke="#000" stroke-miterlimit="10" stroke-width=".25"/>
      <polygon id="stitch9.8" points="179.47 202.61 184.75 202.61 190.04 202.61 195.32 202.61 200.6 202.61 200.6 207.83 200.6 213.05 200.6 218.26 200.6 223.48 195.32 223.48 190.04 223.48 184.75 223.48 179.47 223.48 179.47 218.26 179.47 213.05 179.47 207.83 179.47 202.61" fill="none" mix-blend-mode="multiply" opacity=".5" stroke="#000" stroke-miterlimit="10" stroke-width=".25"/>
      <polygon id="stitch9.7" points="158.34 202.61 163.63 202.61 168.91 202.61 174.19 202.61 179.47 202.61 179.47 207.83 179.47 213.05 179.47 218.26 179.47 223.48 174.19 223.48 168.91 223.48 163.63 223.48 158.34 223.48 158.34 218.26 158.34 213.05 158.34 207.83 158.34 202.61" fill="none" mix-blend-mode="multiply" opacity=".5" stroke="#000" stroke-miterlimit="10" stroke-width=".25"/>
      <polygon id="stitch9.6" points="137.21 202.61 142.5 202.61 147.78 202.61 153.06 202.61 158.34 202.61 158.34 207.83 158.34 213.05 158.34 218.26 158.34 223.48 153.06 223.48 147.78 223.48 142.5 223.48 137.21 223.48 137.21 218.26 137.21 213.05 137.21 207.83 137.21 202.61" fill="none" mix-blend-mode="multiply" opacity=".5" stroke="#000" stroke-miterlimit="10" stroke-width=".25"/>
      <polygon id="stitch9.5" points="116.09 202.61 121.37 202.61 126.65 202.61 131.93 202.61 137.21 202.61 137.21 207.83 137.21 213.05 137.21 218.26 137.21 223.48 131.93 223.48 126.65 223.48 121.37 223.48 116.09 223.48 116.09 218.26 116.09 213.05 116.09 207.83 116.09 202.61" fill="none" mix-blend-mode="multiply" opacity=".5" stroke="#000" stroke-miterlimit="10" stroke-width=".25"/>
      <polygon id="stitch9.4" points="94.96 202.61 100.24 202.61 105.52 202.61 110.8 202.61 116.09 202.61 116.09 207.83 116.09 213.05 116.09 218.26 116.09 223.48 110.8 223.48 105.52 223.48 100.24 223.48 94.96 223.48 94.96 218.26 94.96 213.05 94.96 207.83 94.96 202.61" fill="none" mix-blend-mode="multiply" opacity=".5" stroke="#000" stroke-miterlimit="10" stroke-width=".25"/>
      <polygon id="stitch9.3" points="72.23 201.34 79.11 202.61 84.39 202.61 89.67 202.61 94.96 202.61 94.96 207.83 94.96 213.05 94.96 218.26 94.96 223.48 89.67 223.48 84.39 223.48 79.11 223.48 73.83 223.48 73.83 218.26 73.83 213.05 73.83 207.83 72.23 201.34" fill="none" mix-blend-mode="multiply" opacity=".5" stroke="#000" stroke-miterlimit="10" stroke-width=".25"/>
      <polygon id="stitch9.2" points="49.6 200.56 54.86 204.9 60.52 204.9 67.77 202.61 72.23 201.34 73.83 207.83 73.83 213.05 73.83 218.26 73.83 223.48 68.54 223.48 63.26 223.48 56.07 225.96 52.7 223.48 52.7 218.26 52.7 213.05 54.86 204.9 49.6 200.56" fill="none" mix-blend-mode="multiply" opacity=".5" stroke="#000" stroke-miterlimit="10" stroke-width=".25"/>
      <polygon id="stitch9.1" points="33.68 207.07 37.82 204.08 42.13 202.61 45.83 202.61 49.6 200.56 54.86 204.9 52.7 213.05 52.7 218.26 52.7 223.48 47.42 222.59 42.13 223.48 37.69 226.02 34.95 227.8 29.87 223.48 28.34 215.59 30.28 208.82 33.68 207.07" fill="none" mix-blend-mode="multiply" opacity=".5" stroke="#000" stroke-miterlimit="10" stroke-width=".25"/>
    </g>
    <g id="row8">
      <polygon id="stitch8.16" points="348.5 181.88 353.79 181.88 359.07 181.88 364.35 181.88 369.63 181.88 369.63 187.06 369.63 192.25 369.63 197.43 369.63 202.61 364.35 202.61 359.07 202.61 353.79 202.61 348.5 202.61 348.5 197.43 348.5 192.25 348.5 187.06 348.5 181.88" fill="none" mix-blend-mode="multiply" opacity=".5" stroke="#000" stroke-miterlimit="10" stroke-width=".25"/>
      <polygon id="stitch8.15" points="327.38 181.88 332.66 181.88 337.94 181.88 343.22 181.88 348.5 181.88 348.5 187.06 348.5 192.25 348.5 197.43 348.5 202.61 343.22 202.61 337.94 202.61 332.66 202.61 327.38 202.61 327.38 197.43 327.38 192.25 327.38 187.06 327.38 181.88" fill="none" mix-blend-mode="multiply" opacity=".5" stroke="#000" stroke-miterlimit="10" stroke-width=".25"/>
      <polygon id="stitch8.14" points="306.25 181.88 311.53 181.88 316.81 181.88 322.09 181.88 327.38 181.88 327.38 187.06 327.38 192.25 327.38 197.43 327.38 202.61 322.09 202.61 316.81 202.61 311.53 202.61 306.25 202.61 306.25 197.43 306.25 192.25 306.25 187.06 306.25 181.88" fill="none" mix-blend-mode="multiply" opacity=".5" stroke="#000" stroke-miterlimit="10" stroke-width=".25"/>
      <polygon id="stitch8.13" points="285.12 181.88 290.4 181.88 295.68 181.88 300.96 181.88 306.25 181.88 306.25 187.06 306.25 192.25 306.25 197.43 306.25 202.61 300.96 202.61 295.68 202.61 290.4 202.61 285.12 202.61 285.12 197.43 285.12 192.25 285.12 187.06 285.12 181.88" fill="none" mix-blend-mode="multiply" opacity=".5" stroke="#000" stroke-miterlimit="10" stroke-width=".25"/>
      <polygon id="stitch8.12" points="263.99 181.88 269.27 181.88 274.55 181.88 279.84 181.88 285.12 181.88 285.12 187.06 285.12 192.25 285.12 197.43 285.12 202.61 279.84 202.61 274.55 202.61 269.27 202.61 263.99 202.61 263.99 197.43 263.99 192.25 263.99 187.06 263.99 181.88" fill="none" mix-blend-mode="multiply" opacity=".5" stroke="#000" stroke-miterlimit="10" stroke-width=".25"/>
      <polygon id="stitch8.11" points="242.86 181.88 248.14 181.88 253.42 181.88 258.71 181.88 263.99 181.88 263.99 187.06 263.99 192.25 263.99 197.43 263.99 202.61 258.71 202.61 253.42 202.61 248.14 202.61 242.86 202.61 242.86 197.43 242.86 192.25 242.86 187.06 242.86 181.88" fill="none" mix-blend-mode="multiply" opacity=".5" stroke="#000" stroke-miterlimit="10" stroke-width=".25"/>
      <polygon id="stitch8.10" points="221.73 181.88 227.01 181.88 232.29 181.88 237.58 181.88 242.86 181.88 242.86 187.06 242.86 192.25 242.86 197.43 242.86 202.61 237.58 202.61 232.29 202.61 227.01 202.61 221.73 202.61 221.73 197.43 221.73 192.25 221.73 187.06 221.73 181.88" fill="none" mix-blend-mode="multiply" opacity=".5" stroke="#000" stroke-miterlimit="10" stroke-width=".25"/>
      <polygon id="stitch8.9" points="200.6 181.88 205.88 181.88 211.17 181.88 216.45 181.88 221.73 181.88 221.73 187.06 221.73 192.25 221.73 197.43 221.73 202.61 216.45 202.61 211.17 202.61 205.88 202.61 200.6 202.61 200.6 197.43 200.6 192.25 200.6 187.06 200.6 181.88" fill="none" mix-blend-mode="multiply" opacity=".5" stroke="#000" stroke-miterlimit="10" stroke-width=".25"/>
      <polygon id="stitch8.8" points="179.47 181.88 184.75 181.88 190.04 181.88 195.32 181.88 200.6 181.88 200.6 187.06 200.6 192.25 200.6 197.43 200.6 202.61 195.32 202.61 190.04 202.61 184.75 202.61 179.47 202.61 179.47 197.43 179.47 192.25 179.47 187.06 179.47 181.88" fill="none" mix-blend-mode="multiply" opacity=".5" stroke="#000" stroke-miterlimit="10" stroke-width=".25"/>
      <polygon id="stitch8.7" points="158.34 181.88 163.63 181.88 168.91 181.88 174.19 181.88 179.47 181.88 179.47 187.06 179.47 192.25 179.47 197.43 179.47 202.61 174.19 202.61 168.91 202.61 163.63 202.61 158.34 202.61 158.34 197.43 158.34 192.25 158.34 187.06 158.34 181.88" fill="none" mix-blend-mode="multiply" opacity=".5" stroke="#000" stroke-miterlimit="10" stroke-width=".25"/>
      <polygon id="stitch8.6" points="137.21 181.88 142.5 181.88 147.78 181.88 153.06 181.88 158.34 181.88 158.34 187.06 158.34 192.25 158.34 197.43 158.34 202.61 153.06 202.61 147.78 202.61 142.5 202.61 137.21 202.61 137.21 197.43 137.21 192.25 137.21 187.06 137.21 181.88" fill="none" mix-blend-mode="multiply" opacity=".5" stroke="#000" stroke-miterlimit="10" stroke-width=".25"/>
      <polygon id="stitch8.5" points="116.09 181.88 121.37 181.88 126.65 181.88 131.93 181.88 137.21 181.88 137.21 187.06 137.21 192.25 137.21 197.43 137.21 202.61 131.93 202.61 126.65 202.61 121.37 202.61 116.09 202.61 116.09 197.43 116.09 192.25 116.09 187.06 116.09 181.88" fill="none" mix-blend-mode="multiply" opacity=".5" stroke="#000" stroke-miterlimit="10" stroke-width=".25"/>
      <polygon id="stitch8.4" points="94.96 181.88 100.24 181.88 105.52 181.88 110.8 181.88 116.09 181.88 116.09 187.06 116.09 192.25 116.09 197.43 116.09 202.61 110.8 202.61 105.52 202.61 100.24 202.61 94.96 202.61 94.96 197.43 94.96 192.25 94.96 187.06 94.96 181.88" fill="none" mix-blend-mode="multiply" opacity=".5" stroke="#000" stroke-miterlimit="10" stroke-width=".25"/>
      <polygon id="stitch8.3" points="73.83 181.88 79.11 181.88 84.39 181.88 89.67 181.88 94.96 181.88 94.96 187.06 94.96 192.25 94.96 197.43 94.96 202.61 89.67 202.61 84.39 202.61 79.11 202.61 72.23 201.34 73.83 197.43 73.83 192.25 73.83 187.06 73.83 181.88" fill="none" mix-blend-mode="multiply" opacity=".5" stroke="#000" stroke-miterlimit="10" stroke-width=".25"/>
      <polygon id="stitch8.2" points="50.92 181.05 55.5 184.68 59.51 183.79 68.54 181.88 73.83 181.88 73.83 187.06 73.83 192.25 73.83 197.43 72.23 201.34 67.77 202.61 60.52 204.9 54.86 204.9 49.6 200.56 51.43 197.02 52.7 192.25 55.5 184.68 50.92 181.05" fill="none" mix-blend-mode="multiply" opacity=".5" stroke="#000" stroke-miterlimit="10" stroke-width=".25"/>
      <polygon id="stitch8.1" points="34.25 184.68 36.99 184.68 41.12 181.88 47.1 182.39 50.92 181.05 55.5 184.68 52.7 192.25 51.43 197.02 49.6 200.56 45.83 202.61 42.13 202.61 37.82 204.08 33.68 207.07 28.98 203.79 28.72 194.28 31.29 187.62 34.25 184.68" fill="none" mix-blend-mode="multiply" opacity=".5" stroke="#000" stroke-miterlimit="10" stroke-width=".25"/>
    </g>
    <g id="row7">
      <polygon id="stitch7.16" points="348.5 160.38 353.79 160.38 359.07 160.38 364.35 160.38 369.63 160.38 369.63 165.76 369.63 171.13 369.63 176.51 369.63 181.88 364.35 181.88 359.07 181.88 353.79 181.88 348.5 181.88 348.5 176.51 348.5 171.13 348.5 165.76 348.5 160.38" fill="none" mix-blend-mode="multiply" opacity=".5" stroke="#000" stroke-miterlimit="10" stroke-width=".25"/>
      <polygon id="stitch7.15" points="327.38 160.38 332.66 160.38 337.94 160.38 343.22 160.38 348.5 160.38 348.5 165.76 348.5 171.13 348.5 176.51 348.5 181.88 343.22 181.88 337.94 181.88 332.66 181.88 327.38 181.88 327.38 176.51 327.38 171.13 327.38 165.76 327.38 160.38" fill="none" mix-blend-mode="multiply" opacity=".5" stroke="#000" stroke-miterlimit="10" stroke-width=".25"/>
      <polygon id="stitch7.14" points="306.25 160.38 311.53 160.38 316.81 160.38 322.09 160.38 327.38 160.38 327.38 165.76 327.38 171.13 327.38 176.51 327.38 181.88 322.09 181.88 316.81 181.88 311.53 181.88 306.25 181.88 306.25 176.51 306.25 171.13 306.25 165.76 306.25 160.38" fill="none" mix-blend-mode="multiply" opacity=".5" stroke="#000" stroke-miterlimit="10" stroke-width=".25"/>
      <polygon id="stitch7.13" points="285.12 160.38 290.4 160.38 295.68 160.38 300.96 160.38 306.25 160.38 306.25 165.76 306.25 171.13 306.25 176.51 306.25 181.88 300.96 181.88 295.68 181.88 290.4 181.88 285.12 181.88 285.12 176.51 285.12 171.13 285.12 165.76 285.12 160.38" fill="none" mix-blend-mode="multiply" opacity=".5" stroke="#000" stroke-miterlimit="10" stroke-width=".25"/>
      <polygon id="stitch7.12" points="263.99 160.38 269.27 160.38 274.55 160.38 279.84 160.38 285.12 160.38 285.12 165.76 285.12 171.13 285.12 176.51 285.12 181.88 279.84 181.88 274.55 181.88 269.27 181.88 263.99 181.88 263.99 176.51 263.99 171.13 263.99 165.76 263.99 160.38" fill="none" mix-blend-mode="multiply" opacity=".5" stroke="#000" stroke-miterlimit="10" stroke-width=".25"/>
      <polygon id="stitch7.11" points="242.86 160.38 248.14 160.38 253.42 160.38 258.71 160.38 263.99 160.38 263.99 165.76 263.99 171.13 263.99 176.51 263.99 181.88 258.71 181.88 253.42 181.88 248.14 181.88 242.86 181.88 242.86 176.51 242.86 171.13 242.86 165.76 242.86 160.38" fill="none" mix-blend-mode="multiply" opacity=".5" stroke="#000" stroke-miterlimit="10" stroke-width=".25"/>
      <polygon id="stitch7.10" points="221.73 160.38 227.01 160.38 232.29 160.38 237.58 160.38 242.86 160.38 242.86 165.76 242.86 171.13 242.86 176.51 242.86 181.88 237.58 181.88 232.29 181.88 227.01 181.88 221.73 181.88 221.73 176.51 221.73 171.13 221.73 165.76 221.73 160.38" fill="none" mix-blend-mode="multiply" opacity=".5" stroke="#000" stroke-miterlimit="10" stroke-width=".25"/>
      <polygon id="stitch7.9" points="200.6 160.38 205.88 160.38 211.17 160.38 216.45 160.38 221.73 160.38 221.73 165.76 221.73 171.13 221.73 176.51 221.73 181.88 216.45 181.88 211.17 181.88 205.88 181.88 200.6 181.88 200.6 176.51 200.6 171.13 200.6 165.76 200.6 160.38" fill="none" mix-blend-mode="multiply" opacity=".5" stroke="#000" stroke-miterlimit="10" stroke-width=".25"/>
      <polygon id="stitch7.8" points="179.47 160.38 184.75 160.38 190.04 160.38 195.32 160.38 200.6 160.38 200.6 165.76 200.6 171.13 200.6 176.51 200.6 181.88 195.32 181.88 190.04 181.88 184.75 181.88 179.47 181.88 179.47 176.51 179.47 171.13 179.47 165.76 179.47 160.38" fill="none" mix-blend-mode="multiply" opacity=".5" stroke="#000" stroke-miterlimit="10" stroke-width=".25"/>
      <polygon id="stitch7.7" points="158.34 160.38 163.63 160.38 168.91 160.38 174.19 160.38 179.47 160.38 179.47 165.76 179.47 171.13 179.47 176.51 179.47 181.88 174.19 181.88 168.91 181.88 163.63 181.88 158.34 181.88 158.34 176.51 158.34 171.13 158.34 165.76 158.34 160.38" fill="none" mix-blend-mode="multiply" opacity=".5" stroke="#000" stroke-miterlimit="10" stroke-width=".25"/>
      <polygon id="stitch7.6" points="137.21 160.38 142.5 160.38 147.78 160.38 153.06 160.38 158.34 160.38 158.34 165.76 158.34 171.13 158.34 176.51 158.34 181.88 153.06 181.88 147.78 181.88 142.5 181.88 137.21 181.88 137.21 176.51 137.21 171.13 137.21 165.76 137.21 160.38" fill="none" mix-blend-mode="multiply" opacity=".5" stroke="#000" stroke-miterlimit="10" stroke-width=".25"/>
      <polygon id="stitch7.5" points="116.09 160.38 121.37 160.38 126.65 160.38 131.93 160.38 137.21 160.38 137.21 165.76 137.21 171.13 137.21 176.51 137.21 181.88 131.93 181.88 126.65 181.88 121.37 181.88 116.09 181.88 116.09 176.51 116.09 171.13 116.09 165.76 116.09 160.38" fill="none" mix-blend-mode="multiply" opacity=".5" stroke="#000" stroke-miterlimit="10" stroke-width=".25"/>
      <polygon id="stitch7.4" points="94.96 160.38 100.24 160.38 105.52 160.38 110.8 160.38 116.09 160.38 116.09 165.76 116.09 171.13 116.09 176.51 116.09 181.88 110.8 181.88 105.52 181.88 100.24 181.88 94.96 181.88 94.96 176.51 94.96 171.13 94.96 165.76 94.96 160.38" fill="none" mix-blend-mode="multiply" opacity=".5" stroke="#000" stroke-miterlimit="10" stroke-width=".25"/>
      <polygon id="stitch7.3" points="73.83 160.38 79.11 160.38 84.39 160.38 89.67 160.38 94.96 160.38 94.96 165.76 94.96 171.13 94.96 176.51 94.96 181.88 89.67 181.88 84.39 181.88 79.11 181.88 73.83 181.88 73.83 176.51 73.83 171.13 73.83 165.76 73.83 160.38" fill="none" mix-blend-mode="multiply" opacity=".5" stroke="#000" stroke-miterlimit="10" stroke-width=".25"/>
      <polygon id="stitch7.2" points="50.56 157.41 57.09 162.54 63.26 160.38 68.54 160.38 73.83 160.38 73.83 165.76 73.83 171.13 73.83 176.51 73.83 181.88 68.54 181.88 59.51 183.79 55.5 184.68 50.92 181.05 52.7 176.51 54.48 170.08 57.09 162.54 50.56 157.41" fill="none" mix-blend-mode="multiply" opacity=".5" stroke="#000" stroke-miterlimit="10" stroke-width=".25"/>
      <polygon id="stitch7.1" points="36.99 165.79 39.15 162.61 42.13 161.78 46.47 159.11 50.56 157.41 57.09 162.54 54.48 170.08 52.7 176.51 50.92 181.05 47.1 182.39 41.12 181.88 36.99 184.68 34.25 184.68 30.94 183.75 31.29 177.68 32.6 171.13 36.99 165.79" fill="none" mix-blend-mode="multiply" opacity=".5" stroke="#000" stroke-miterlimit="10" stroke-width=".25"/>
    </g>
    <g id="row6">
      <polygon id="stitch6.16" points="348.5 139.77 353.79 139.77 359.07 139.77 364.35 139.77 369.63 139.77 369.63 144.93 369.63 150.08 369.63 155.23 369.63 160.38 364.35 160.38 359.07 160.38 353.79 160.38 348.5 160.38 348.5 155.23 348.5 150.08 348.5 144.93 348.5 139.77" fill="none" mix-blend-mode="multiply" opacity=".5" stroke="#000" stroke-miterlimit="10" stroke-width=".25"/>
      <polygon id="stitch6.15" points="327.38 139.77 332.66 139.77 337.94 139.77 343.22 139.77 348.5 139.77 348.5 144.93 348.5 150.08 348.5 155.23 348.5 160.38 343.22 160.38 337.94 160.38 332.66 160.38 327.38 160.38 327.38 155.23 327.38 150.08 327.38 144.93 327.38 139.77" fill="none" mix-blend-mode="multiply" opacity=".5" stroke="#000" stroke-miterlimit="10" stroke-width=".25"/>
      <polygon id="stitch6.14" points="306.25 139.77 311.53 139.77 316.81 139.77 322.09 139.77 327.38 139.77 327.38 144.93 327.38 150.08 327.38 155.23 327.38 160.38 322.09 160.38 316.81 160.38 311.53 160.38 306.25 160.38 306.25 155.23 306.25 150.08 306.25 144.93 306.25 139.77" fill="none" mix-blend-mode="multiply" opacity=".5" stroke="#000" stroke-miterlimit="10" stroke-width=".25"/>
      <polygon id="stitch6.13" points="285.12 139.77 290.4 139.77 295.68 139.77 300.96 139.77 306.25 139.77 306.25 144.93 306.25 150.08 306.25 155.23 306.25 160.38 300.96 160.38 295.68 160.38 290.4 160.38 285.12 160.38 285.12 155.23 285.12 150.08 285.12 144.93 285.12 139.77" fill="none" mix-blend-mode="multiply" opacity=".5" stroke="#000" stroke-miterlimit="10" stroke-width=".25"/>
      <polygon id="stitch6.12" points="263.99 139.77 269.27 139.77 274.55 139.77 279.84 139.77 285.12 139.77 285.12 144.93 285.12 150.08 285.12 155.23 285.12 160.38 279.84 160.38 274.55 160.38 269.27 160.38 263.99 160.38 263.99 155.23 263.99 150.08 263.99 144.93 263.99 139.77" fill="none" mix-blend-mode="multiply" opacity=".5" stroke="#000" stroke-miterlimit="10" stroke-width=".25"/>
      <polygon id="stitch6.11" points="242.86 139.77 248.14 139.77 253.42 139.77 258.71 139.77 263.99 139.77 263.99 144.93 263.99 150.08 263.99 155.23 263.99 160.38 258.71 160.38 253.42 160.38 248.14 160.38 242.86 160.38 242.86 155.23 242.86 150.08 242.86 144.93 242.86 139.77" fill="none" mix-blend-mode="multiply" opacity=".5" stroke="#000" stroke-miterlimit="10" stroke-width=".25"/>
      <polygon id="stitch6.10" points="221.73 139.77 227.01 139.77 232.29 139.77 237.58 139.77 242.86 139.77 242.86 144.93 242.86 150.08 242.86 155.23 242.86 160.38 237.58 160.38 232.29 160.38 227.01 160.38 221.73 160.38 221.73 155.23 221.73 150.08 221.73 144.93 221.73 139.77" fill="none" mix-blend-mode="multiply" opacity=".5" stroke="#000" stroke-miterlimit="10" stroke-width=".25"/>
      <polygon id="stitch6.9" points="200.6 139.77 205.88 139.77 211.17 139.77 216.45 139.77 221.73 139.77 221.73 144.93 221.73 150.08 221.73 155.23 221.73 160.38 216.45 160.38 211.17 160.38 205.88 160.38 200.6 160.38 200.6 155.23 200.6 150.08 200.6 144.93 200.6 139.77" fill="none" mix-blend-mode="multiply" opacity=".5" stroke="#000" stroke-miterlimit="10" stroke-width=".25"/>
      <polygon id="stitch6.8" points="179.47 139.77 184.75 139.77 190.04 139.77 195.32 139.77 200.6 139.77 200.6 144.93 200.6 150.08 200.6 155.23 200.6 160.38 195.32 160.38 190.04 160.38 184.75 160.38 179.47 160.38 179.47 155.23 179.47 150.08 179.47 144.93 179.47 139.77" fill="none" mix-blend-mode="multiply" opacity=".5" stroke="#000" stroke-miterlimit="10" stroke-width=".25"/>
      <polygon id="stitch6.7" points="158.34 139.77 163.63 139.77 168.91 139.77 174.19 139.77 179.47 139.77 179.47 144.93 179.47 150.08 179.47 155.23 179.47 160.38 174.19 160.38 168.91 160.38 163.63 160.38 158.34 160.38 158.34 155.23 158.34 150.08 158.34 144.93 158.34 139.77" fill="none" mix-blend-mode="multiply" opacity=".5" stroke="#000" stroke-miterlimit="10" stroke-width=".25"/>
      <polygon id="stitch6.6" points="137.21 139.77 142.5 139.77 147.78 139.77 153.06 139.77 158.34 139.77 158.34 144.93 158.34 150.08 158.34 155.23 158.34 160.38 153.06 160.38 147.78 160.38 142.5 160.38 137.21 160.38 137.21 155.23 137.21 150.08 137.21 144.93 137.21 139.77" fill="none" mix-blend-mode="multiply" opacity=".5" stroke="#000" stroke-miterlimit="10" stroke-width=".25"/>
      <polygon id="stitch6.5" points="116.09 139.77 121.37 139.77 126.65 139.77 131.93 139.77 137.21 139.77 137.21 144.93 137.21 150.08 137.21 155.23 137.21 160.38 131.93 160.38 126.65 160.38 121.37 160.38 116.09 160.38 116.09 155.23 116.09 150.08 116.09 144.93 116.09 139.77" fill="none" mix-blend-mode="multiply" opacity=".5" stroke="#000" stroke-miterlimit="10" stroke-width=".25"/>
      <polygon id="stitch6.4" points="94.96 139.77 100.24 139.77 105.52 139.77 110.8 139.77 116.09 139.77 116.09 144.93 116.09 150.08 116.09 155.23 116.09 160.38 110.8 160.38 105.52 160.38 100.24 160.38 94.96 160.38 94.96 155.23 94.96 150.08 94.96 144.93 94.96 139.77" fill="none" mix-blend-mode="multiply" opacity=".5" stroke="#000" stroke-miterlimit="10" stroke-width=".25"/>
      <polygon id="stitch6.3" points="73.83 139.77 79.11 139.77 84.39 139.77 89.67 139.77 94.96 139.77 94.96 144.93 94.96 150.08 94.96 155.23 94.96 160.38 89.67 160.38 84.39 160.38 79.11 160.38 73.83 160.38 73.83 155.23 73.83 150.08 73.83 144.93 73.83 139.77" fill="none" mix-blend-mode="multiply" opacity=".5" stroke="#000" stroke-miterlimit="10" stroke-width=".25"/>
      <polygon id="stitch6.2" points="50.79 138.88 55.24 143.72 62.75 140.86 68.54 139.77 73.83 139.77 73.83 144.93 73.83 150.08 73.83 155.23 73.83 160.38 68.54 160.38 63.26 160.38 57.09 162.54 50.56 157.41 50.79 154.15 52.7 150.08 55.24 143.72 50.79 138.88" fill="none" mix-blend-mode="multiply" opacity=".5" stroke="#000" stroke-miterlimit="10" stroke-width=".25"/>
      <polygon id="stitch6.1" points="30.89 141.39 35.91 140.79 41.44 139.33 47.42 139.77 50.79 138.88 55.24 143.72 52.7 150.08 50.79 154.15 50.56 157.41 46.47 159.11 42.13 161.78 39.15 162.61 36.99 165.79 29.11 162.93 28.2 150.98 29.42 144.67 30.89 141.39" fill="none" mix-blend-mode="multiply" opacity=".5" stroke="#000" stroke-miterlimit="10" stroke-width=".25"/>
    </g>
    <g id="row5">
      <polygon id="stitch5.16" points="348.5 120.36 353.79 120.36 359.07 120.36 364.35 120.36 369.63 120.36 369.63 125.21 369.63 130.06 369.63 134.92 369.63 139.77 364.35 139.77 359.07 139.77 353.79 139.77 348.5 139.77 348.5 134.92 348.5 130.06 348.5 125.21 348.5 120.36" fill="none" mix-blend-mode="multiply" opacity=".5" stroke="#000" stroke-miterlimit="10" stroke-width=".25"/>
      <polygon id="stitch5.15" points="327.38 120.36 332.66 120.36 337.94 120.36 343.22 120.36 348.5 120.36 348.5 125.21 348.5 130.06 348.5 134.92 348.5 139.77 343.22 139.77 337.94 139.77 332.66 139.77 327.38 139.77 327.38 134.92 327.38 130.06 327.38 125.21 327.38 120.36" fill="none" mix-blend-mode="multiply" opacity=".5" stroke="#000" stroke-miterlimit="10" stroke-width=".25"/>
      <polygon id="stitch5.14" points="306.25 120.36 311.53 120.36 316.81 120.36 322.09 120.36 327.38 120.36 327.38 125.21 327.38 130.06 327.38 134.92 327.38 139.77 322.09 139.77 316.81 139.77 311.53 139.77 306.25 139.77 306.25 134.92 306.25 130.06 306.25 125.21 306.25 120.36" fill="none" mix-blend-mode="multiply" opacity=".5" stroke="#000" stroke-miterlimit="10" stroke-width=".25"/>
      <polygon id="stitch5.13" points="285.12 120.36 290.4 120.36 295.68 120.36 300.96 120.36 306.25 120.36 306.25 125.21 306.25 130.06 306.25 134.92 306.25 139.77 300.96 139.77 295.68 139.77 290.4 139.77 285.12 139.77 285.12 134.92 285.12 130.06 285.12 125.21 285.12 120.36" fill="none" mix-blend-mode="multiply" opacity=".5" stroke="#000" stroke-miterlimit="10" stroke-width=".25"/>
      <polygon id="stitch5.12" points="263.99 120.36 269.27 120.36 274.55 120.36 279.84 120.36 285.12 120.36 285.12 125.21 285.12 130.06 285.12 134.92 285.12 139.77 279.84 139.77 274.55 139.77 269.27 139.77 263.99 139.77 263.99 134.92 263.99 130.06 263.99 125.21 263.99 120.36" fill="none" mix-blend-mode="multiply" opacity=".5" stroke="#000" stroke-miterlimit="10" stroke-width=".25"/>
      <polygon id="stitch5.11" points="242.86 120.36 248.14 120.36 253.42 120.36 258.71 120.36 263.99 120.36 263.99 125.21 263.99 130.06 263.99 134.92 263.99 139.77 258.71 139.77 253.42 139.77 248.14 139.77 242.86 139.77 242.86 134.92 242.86 130.06 242.86 125.21 242.86 120.36" fill="none" mix-blend-mode="multiply" opacity=".5" stroke="#000" stroke-miterlimit="10" stroke-width=".25"/>
      <polygon id="stitch5.10" points="221.73 120.36 227.01 120.36 232.29 120.36 237.58 120.36 242.86 120.36 242.86 125.21 242.86 130.06 242.86 134.92 242.86 139.77 237.58 139.77 232.29 139.77 227.01 139.77 221.73 139.77 221.73 134.92 221.73 130.06 221.73 125.21 221.73 120.36" fill="none" mix-blend-mode="multiply" opacity=".5" stroke="#000" stroke-miterlimit="10" stroke-width=".25"/>
      <polygon id="stitch5.9" points="200.6 120.36 205.88 120.36 211.17 120.36 216.45 120.36 221.73 120.36 221.73 125.21 221.73 130.06 221.73 134.92 221.73 139.77 216.45 139.77 211.17 139.77 205.88 139.77 200.6 139.77 200.6 134.92 200.6 130.06 200.6 125.21 200.6 120.36" fill="none" mix-blend-mode="multiply" opacity=".5" stroke="#000" stroke-miterlimit="10" stroke-width=".25"/>
      <polygon id="stitch5.8" points="179.47 120.36 184.75 120.36 190.04 120.36 195.32 120.36 200.6 120.36 200.6 125.21 200.6 130.06 200.6 134.92 200.6 139.77 195.32 139.77 190.04 139.77 184.75 139.77 179.47 139.77 179.47 134.92 179.47 130.06 179.47 125.21 179.47 120.36" fill="none" mix-blend-mode="multiply" opacity=".5" stroke="#000" stroke-miterlimit="10" stroke-width=".25"/>
      <polygon id="stitch5.7" points="158.34 120.36 163.63 120.36 168.91 120.36 174.19 120.36 179.47 120.36 179.47 125.21 179.47 130.06 179.47 134.92 179.47 139.77 174.19 139.77 168.91 139.77 163.63 139.77 158.34 139.77 158.34 134.92 158.34 130.06 158.34 125.21 158.34 120.36" fill="none" mix-blend-mode="multiply" opacity=".5" stroke="#000" stroke-miterlimit="10" stroke-width=".25"/>
      <polygon id="stitch5.6" points="137.21 120.36 142.5 120.36 147.78 120.36 153.06 120.36 158.34 120.36 158.34 125.21 158.34 130.06 158.34 134.92 158.34 139.77 153.06 139.77 147.78 139.77 142.5 139.77 137.21 139.77 137.21 134.92 137.21 130.06 137.21 125.21 137.21 120.36" fill="none" mix-blend-mode="multiply" opacity=".5" stroke="#000" stroke-miterlimit="10" stroke-width=".25"/>
      <polygon id="stitch5.5" points="116.09 120.36 121.37 120.36 126.65 120.36 131.93 120.36 137.21 120.36 137.21 125.21 137.21 130.06 137.21 134.92 137.21 139.77 131.93 139.77 126.65 139.77 121.37 139.77 116.09 139.77 116.09 134.92 116.09 130.06 116.09 125.21 116.09 120.36" fill="none" mix-blend-mode="multiply" opacity=".5" stroke="#000" stroke-miterlimit="10" stroke-width=".25"/>
      <polygon id="stitch5.4" points="94.96 120.36 100.24 120.36 105.52 120.36 110.8 120.36 116.09 120.36 116.09 125.21 116.09 130.06 116.09 134.92 116.09 139.77 110.8 139.77 105.52 139.77 100.24 139.77 94.96 139.77 94.96 134.92 94.96 130.06 94.96 125.21 94.96 120.36" fill="none" mix-blend-mode="multiply" opacity=".5" stroke="#000" stroke-miterlimit="10" stroke-width=".25"/>
      <polygon id="stitch5.3" points="73.83 120.36 79.11 120.36 84.39 120.36 89.67 120.36 94.96 120.36 94.96 125.21 94.96 130.06 94.96 134.92 94.96 139.77 89.67 139.77 84.39 139.77 79.11 139.77 73.83 139.77 73.83 134.92 73.83 130.06 73.83 125.21 73.83 120.36" fill="none" mix-blend-mode="multiply" opacity=".5" stroke="#000" stroke-miterlimit="10" stroke-width=".25"/>
      <polygon id="stitch5.2" points="52.7 120.36 55.24 123.43 63.26 120.36 68.54 120.36 73.83 120.36 73.83 125.21 73.83 130.06 73.83 134.92 73.83 139.77 68.54 139.77 62.75 140.86 55.24 143.72 50.79 138.88 52.7 134.92 52.7 130.06 55.24 123.43 52.7 120.36" fill="none" mix-blend-mode="multiply" opacity=".5" stroke="#000" stroke-miterlimit="10" stroke-width=".25"/>
      <polygon id="stitch5.1" points="33.75 125.08 38.26 123.43 42.59 121.01 47.55 118.98 52.7 120.36 55.24 123.43 52.7 130.06 52.7 134.92 50.79 138.88 47.42 139.77 41.44 139.33 35.91 140.79 30.89 141.39 30.28 136.15 30.51 132.21 31.87 128.64 33.75 125.08" fill="none" mix-blend-mode="multiply" opacity=".5" stroke="#000" stroke-miterlimit="10" stroke-width=".25"/>
    </g>
    <g id="row4">
      <polygon id="stitch4.16" points="348.5 96.9 353.79 96.9 359.07 96.9 364.35 96.9 369.63 96.9 369.63 102.77 369.63 108.63 369.63 114.49 369.63 120.36 364.35 120.36 359.07 120.36 353.79 120.36 348.5 120.36 348.5 114.49 348.5 108.63 348.5 102.77 348.5 96.9" fill="none" mix-blend-mode="multiply" opacity=".5" stroke="#000" stroke-miterlimit="10" stroke-width=".25"/>
      <polygon id="stitch4.15" points="327.38 96.9 332.66 96.9 337.94 96.9 343.22 96.9 348.5 96.9 348.5 102.77 348.5 108.63 348.5 114.49 348.5 120.36 343.22 120.36 337.94 120.36 332.66 120.36 327.38 120.36 327.38 114.49 327.38 108.63 327.38 102.77 327.38 96.9" fill="none" mix-blend-mode="multiply" opacity=".5" stroke="#000" stroke-miterlimit="10" stroke-width=".25"/>
      <polygon id="stitch4.14" points="306.25 96.9 311.53 96.9 316.81 96.9 322.09 96.9 327.38 96.9 327.38 102.77 327.38 108.63 327.38 114.49 327.38 120.36 322.09 120.36 316.81 120.36 311.53 120.36 306.25 120.36 306.25 114.49 306.25 108.63 306.25 102.77 306.25 96.9" fill="none" mix-blend-mode="multiply" opacity=".5" stroke="#000" stroke-miterlimit="10" stroke-width=".25"/>
      <polygon id="stitch4.13" points="285.12 96.9 290.4 96.9 295.68 96.9 300.96 96.9 306.25 96.9 306.25 102.77 306.25 108.63 306.25 114.49 306.25 120.36 300.96 120.36 295.68 120.36 290.4 120.36 285.12 120.36 285.12 114.49 285.12 108.63 285.12 102.77 285.12 96.9" fill="none" mix-blend-mode="multiply" opacity=".5" stroke="#000" stroke-miterlimit="10" stroke-width=".25"/>
      <polygon id="stitch4.12" points="263.99 96.9 269.27 96.9 274.55 96.9 279.84 96.9 285.12 96.9 285.12 102.77 285.12 108.63 285.12 114.49 285.12 120.36 279.84 120.36 274.55 120.36 269.27 120.36 263.99 120.36 263.99 114.49 263.99 108.63 263.99 102.77 263.99 96.9" fill="none" mix-blend-mode="multiply" opacity=".5" stroke="#000" stroke-miterlimit="10" stroke-width=".25"/>
      <polygon id="stitch4.11" points="242.86 96.9 248.14 96.9 253.42 96.9 258.71 96.9 263.99 96.9 263.99 102.77 263.99 108.63 263.99 114.49 263.99 120.36 258.71 120.36 253.42 120.36 248.14 120.36 242.86 120.36 242.86 114.49 242.86 108.63 242.86 102.77 242.86 96.9" fill="none" mix-blend-mode="multiply" opacity=".5" stroke="#000" stroke-miterlimit="10" stroke-width=".25"/>
      <polygon id="stitch4.10" points="221.73 96.9 227.01 96.9 232.29 96.9 237.58 96.9 242.86 96.9 242.86 102.77 242.86 108.63 242.86 114.49 242.86 120.36 237.58 120.36 232.29 120.36 227.01 120.36 221.73 120.36 221.73 114.49 221.73 108.63 221.73 102.77 221.73 96.9" fill="none" mix-blend-mode="multiply" opacity=".5" stroke="#000" stroke-miterlimit="10" stroke-width=".25"/>
      <polygon id="stitch4.9" points="200.6 96.9 205.88 96.9 211.17 96.9 216.45 96.9 221.73 96.9 221.73 102.77 221.73 108.63 221.73 114.49 221.73 120.36 216.45 120.36 211.17 120.36 205.88 120.36 200.6 120.36 200.6 114.49 200.6 108.63 200.6 102.77 200.6 96.9" fill="none" mix-blend-mode="multiply" opacity=".5" stroke="#000" stroke-miterlimit="10" stroke-width=".25"/>
      <polygon id="stitch4.8" points="179.47 96.9 184.75 96.9 190.04 96.9 195.32 96.9 200.6 96.9 200.6 102.77 200.6 108.63 200.6 114.49 200.6 120.36 195.32 120.36 190.04 120.36 184.75 120.36 179.47 120.36 179.47 114.49 179.47 108.63 179.47 102.77 179.47 96.9" fill="none" mix-blend-mode="multiply" opacity=".5" stroke="#000" stroke-miterlimit="10" stroke-width=".25"/>
      <polygon id="stitch4.7" points="158.34 96.9 163.63 96.9 168.91 96.9 174.19 96.9 179.47 96.9 179.47 102.77 179.47 108.63 179.47 114.49 179.47 120.36 174.19 120.36 168.91 120.36 163.63 120.36 158.34 120.36 158.34 114.49 158.34 108.63 158.34 102.77 158.34 96.9" fill="none" mix-blend-mode="multiply" opacity=".5" stroke="#000" stroke-miterlimit="10" stroke-width=".25"/>
      <polygon id="stitch4.6" points="137.21 96.9 142.5 96.9 147.78 96.9 153.06 96.9 158.34 96.9 158.34 102.77 158.34 108.63 158.34 114.49 158.34 120.36 153.06 120.36 147.78 120.36 142.5 120.36 137.21 120.36 137.21 114.49 137.21 108.63 137.21 102.77 137.21 96.9" fill="none" mix-blend-mode="multiply" opacity=".5" stroke="#000" stroke-miterlimit="10" stroke-width=".25"/>
      <polygon id="stitch4.5" points="116.09 96.9 121.37 96.9 126.65 96.9 131.93 96.9 137.21 96.9 137.21 102.77 137.21 108.63 137.21 114.49 137.21 120.36 131.93 120.36 126.65 120.36 121.37 120.36 116.09 120.36 116.09 114.49 116.09 108.63 116.09 102.77 116.09 96.9" fill="none" mix-blend-mode="multiply" opacity=".5" stroke="#000" stroke-miterlimit="10" stroke-width=".25"/>
      <polygon id="stitch4.4" points="94.96 96.9 100.24 96.9 105.52 96.9 110.8 96.9 116.09 96.9 116.09 102.77 116.09 108.63 116.09 114.49 116.09 120.36 110.8 120.36 105.52 120.36 100.24 120.36 94.96 120.36 94.96 114.49 94.96 108.63 94.96 102.77 94.96 96.9" fill="none" mix-blend-mode="multiply" opacity=".5" stroke="#000" stroke-miterlimit="10" stroke-width=".25"/>
      <polygon id="stitch4.3" points="71.97 95.76 79.11 96.9 84.39 96.9 89.67 96.9 94.96 96.9 94.96 102.77 94.96 108.63 94.96 114.49 94.96 120.36 89.67 120.36 84.39 120.36 79.11 120.36 73.83 120.36 73.83 114.49 73.83 108.63 73.83 102.77 71.97 95.76" fill="none" mix-blend-mode="multiply" opacity=".5" stroke="#000" stroke-miterlimit="10" stroke-width=".25"/>
      <polygon id="stitch4.2" points="50.79 94.23 55.24 98.37 63.26 96.9 68.54 96.9 71.97 95.76 73.83 102.77 73.83 108.63 73.83 114.49 73.83 120.36 68.54 120.36 63.26 120.36 55.24 123.43 52.7 120.36 52.7 114.49 52.7 108.63 55.24 98.37 50.79 94.23" fill="none" mix-blend-mode="multiply" opacity=".5" stroke="#000" stroke-miterlimit="10" stroke-width=".25"/>
      <polygon id="stitch4.1" points="33.3 100.66 38.2 99.26 42.59 96.52 47.1 95.44 50.79 94.23 55.24 98.37 52.7 108.63 52.7 114.49 52.7 120.36 47.55 118.98 42.59 121.01 38.26 123.43 33.75 125.08 29.23 123.62 28.65 113.45 30.28 106.76 33.3 100.66" fill="none" mix-blend-mode="multiply" opacity=".5" stroke="#000" stroke-miterlimit="10" stroke-width=".25"/>
    </g>
    <g id="row3">
      <polygon id="stitch3.16" points="348.5 76.04 353.79 76.04 359.07 76.04 364.35 76.04 369.63 76.04 369.63 81.26 369.63 86.47 369.63 91.69 369.63 96.9 364.35 96.9 359.07 96.9 353.79 96.9 348.5 96.9 348.5 91.69 348.5 86.47 348.5 81.26 348.5 76.04" fill="none" mix-blend-mode="multiply" opacity=".5" stroke="#000" stroke-miterlimit="10" stroke-width=".25"/>
      <polygon id="stitch3.15" points="327.38 76.04 332.66 76.04 337.94 76.04 343.22 76.04 348.5 76.04 348.5 81.26 348.5 86.47 348.5 91.69 348.5 96.9 343.22 96.9 337.94 96.9 332.66 96.9 327.38 96.9 327.38 91.69 327.38 86.47 327.38 81.26 327.38 76.04" fill="none" mix-blend-mode="multiply" opacity=".5" stroke="#000" stroke-miterlimit="10" stroke-width=".25"/>
      <polygon id="stitch3.14" points="306.25 76.04 311.53 76.04 316.81 76.04 322.09 76.04 327.38 76.04 327.38 81.26 327.38 86.47 327.38 91.69 327.38 96.9 322.09 96.9 316.81 96.9 311.53 96.9 306.25 96.9 306.25 91.69 306.25 86.47 306.25 81.26 306.25 76.04" fill="none" mix-blend-mode="multiply" opacity=".5" stroke="#000" stroke-miterlimit="10" stroke-width=".25"/>
      <polygon id="stitch3.13" points="285.12 76.04 290.4 76.04 295.68 76.04 300.96 76.04 306.25 76.04 306.25 81.26 306.25 86.47 306.25 91.69 306.25 96.9 300.96 96.9 295.68 96.9 290.4 96.9 285.12 96.9 285.12 91.69 285.12 86.47 285.12 81.26 285.12 76.04" fill="none" mix-blend-mode="multiply" opacity=".5" stroke="#000" stroke-miterlimit="10" stroke-width=".25"/>
      <polygon id="stitch3.12" points="263.99 76.04 269.27 76.04 274.55 76.04 279.84 76.04 285.12 76.04 285.12 81.26 285.12 86.47 285.12 91.69 285.12 96.9 279.84 96.9 274.55 96.9 269.27 96.9 263.99 96.9 263.99 91.69 263.99 86.47 263.99 81.26 263.99 76.04" fill="none" mix-blend-mode="multiply" opacity=".5" stroke="#000" stroke-miterlimit="10" stroke-width=".25"/>
      <polygon id="stitch3.11" points="242.86 76.04 248.14 76.04 253.42 76.04 258.71 76.04 263.99 76.04 263.99 81.26 263.99 86.47 263.99 91.69 263.99 96.9 258.71 96.9 253.42 96.9 248.14 96.9 242.86 96.9 242.86 91.69 242.86 86.47 242.86 81.26 242.86 76.04" fill="none" mix-blend-mode="multiply" opacity=".5" stroke="#000" stroke-miterlimit="10" stroke-width=".25"/>
      <polygon id="stitch3.10" points="221.73 76.04 227.01 76.04 232.29 76.04 237.58 76.04 242.86 76.04 242.86 81.26 242.86 86.47 242.86 91.69 242.86 96.9 237.58 96.9 232.29 96.9 227.01 96.9 221.73 96.9 221.73 91.69 221.73 86.47 221.73 81.26 221.73 76.04" fill="none" mix-blend-mode="multiply" opacity=".5" stroke="#000" stroke-miterlimit="10" stroke-width=".25"/>
      <polygon id="stitch3.9" points="200.6 76.04 205.88 76.04 211.17 76.04 216.45 76.04 221.73 76.04 221.73 81.26 221.73 86.47 221.73 91.69 221.73 96.9 216.45 96.9 211.17 96.9 205.88 96.9 200.6 96.9 200.6 91.69 200.6 86.47 200.6 81.26 200.6 76.04" fill="none" mix-blend-mode="multiply" opacity=".5" stroke="#000" stroke-miterlimit="10" stroke-width=".25"/>
      <polygon id="stitch3.8" points="179.47 76.04 184.75 76.04 190.04 76.04 195.32 76.04 200.6 76.04 200.6 81.26 200.6 86.47 200.6 91.69 200.6 96.9 195.32 96.9 190.04 96.9 184.75 96.9 179.47 96.9 179.47 91.69 179.47 86.47 179.47 81.26 179.47 76.04" fill="none" mix-blend-mode="multiply" opacity=".5" stroke="#000" stroke-miterlimit="10" stroke-width=".25"/>
      <polygon id="stitch3.7" points="158.34 76.04 163.63 76.04 168.91 76.04 174.19 76.04 179.47 76.04 179.47 81.26 179.47 86.47 179.47 91.69 179.47 96.9 174.19 96.9 168.91 96.9 163.63 96.9 158.34 96.9 158.34 91.69 158.34 86.47 158.34 81.26 158.34 76.04" fill="none" mix-blend-mode="multiply" opacity=".5" stroke="#000" stroke-miterlimit="10" stroke-width=".25"/>
      <polygon id="stitch3.6" points="137.21 76.04 142.5 76.04 147.78 76.04 153.06 76.04 158.34 76.04 158.34 81.26 158.34 86.47 158.34 91.69 158.34 96.9 153.06 96.9 147.78 96.9 142.5 96.9 137.21 96.9 137.21 91.69 137.21 86.47 137.21 81.26 137.21 76.04" fill="none" mix-blend-mode="multiply" opacity=".5" stroke="#000" stroke-miterlimit="10" stroke-width=".25"/>
      <polygon id="stitch3.5" points="116.09 76.04 121.37 76.04 126.65 76.04 131.93 76.04 137.21 76.04 137.21 81.26 137.21 86.47 137.21 91.69 137.21 96.9 131.93 96.9 126.65 96.9 121.37 96.9 116.09 96.9 116.09 91.69 116.09 86.47 116.09 81.26 116.09 76.04" fill="none" mix-blend-mode="multiply" opacity=".5" stroke="#000" stroke-miterlimit="10" stroke-width=".25"/>
      <polygon id="stitch3.4" points="92.77 76.61 100.21 78.46 105.52 76.04 110.8 76.04 116.09 76.04 116.09 81.26 116.09 86.47 116.09 91.69 116.09 96.9 110.8 96.9 105.52 96.9 100.24 96.9 94.96 96.9 94.96 91.69 94.96 86.47 100.21 78.46 92.77 76.61" fill="none" mix-blend-mode="multiply" opacity=".5" stroke="#000" stroke-miterlimit="10" stroke-width=".25"/>
      <polygon id="stitch3.3" points="73.05 75.22 78.36 79.56 84 78.52 89.21 77.44 92.77 76.61 100.21 78.46 94.96 86.47 94.96 91.69 94.96 96.9 89.67 96.9 84.39 96.9 79.11 96.9 71.97 95.76 73.83 91.69 76.3 86.47 78.36 79.56 73.05 75.22" fill="none" mix-blend-mode="multiply" opacity=".5" stroke="#000" stroke-miterlimit="10" stroke-width=".25"/>
      <polygon id="stitch3.2" points="49.27 75.22 57.28 79.56 64.02 77.78 68.73 76.61 73.05 75.22 78.36 79.56 76.3 86.47 73.83 91.69 71.97 95.76 68.54 96.9 63.26 96.9 55.24 98.37 50.79 94.23 51.93 91.78 52.7 86.47 57.28 79.56 49.27 75.22" fill="none" mix-blend-mode="multiply" opacity=".5" stroke="#000" stroke-miterlimit="10" stroke-width=".25"/>
      <polygon id="stitch3.1" points="31.96 82.66 36.25 79.43 41.67 78.67 47.42 76.04 49.27 75.22 57.28 79.56 52.7 86.47 51.93 91.78 50.79 94.23 47.1 95.44 42.59 96.52 38.2 99.26 33.3 100.66 30.6 96.2 30.28 89.97 30.92 85.42 31.96 82.66" fill="none" mix-blend-mode="multiply" opacity=".5" stroke="#000" stroke-miterlimit="10" stroke-width=".25"/>
    </g>
    <g id="row2">
      <polygon id="stitch2.16" points="348.5 54.42 353.79 54.42 359.07 54.42 364.35 54.42 369.63 54.42 369.63 59.82 369.63 65.23 369.63 70.64 369.63 76.04 364.35 76.04 359.07 76.04 353.79 76.04 348.5 76.04 348.5 70.64 348.5 65.23 348.5 59.82 348.5 54.42" fill="none" mix-blend-mode="multiply" opacity=".5" stroke="#000" stroke-miterlimit="10" stroke-width=".25"/>
      <polygon id="stitch2.15" points="327.38 54.42 332.66 54.42 337.94 54.42 343.22 54.42 348.5 54.42 348.5 59.82 348.5 65.23 348.5 70.64 348.5 76.04 343.22 76.04 337.94 76.04 332.66 76.04 327.38 76.04 327.38 70.64 327.38 65.23 327.38 59.82 327.38 54.42" fill="none" mix-blend-mode="multiply" opacity=".5" stroke="#000" stroke-miterlimit="10" stroke-width=".25"/>
      <polygon id="stitch2.14" points="306.25 54.42 311.53 54.42 316.81 54.42 322.09 54.42 327.38 54.42 327.38 59.82 327.38 65.23 327.38 70.64 327.38 76.04 322.09 76.04 316.81 76.04 311.53 76.04 306.25 76.04 306.25 70.64 306.25 65.23 306.25 59.82 306.25 54.42" fill="none" mix-blend-mode="multiply" opacity=".5" stroke="#000" stroke-miterlimit="10" stroke-width=".25"/>
      <polygon id="stitch2.13" points="285.12 54.42 290.4 54.42 295.68 54.42 300.96 54.42 306.25 54.42 306.25 59.82 306.25 65.23 306.25 70.64 306.25 76.04 300.96 76.04 295.68 76.04 290.4 76.04 285.12 76.04 285.12 70.64 285.12 65.23 285.12 59.82 285.12 54.42" fill="none" mix-blend-mode="multiply" opacity=".5" stroke="#000" stroke-miterlimit="10" stroke-width=".25"/>
      <polygon id="stitch2.12" points="263.99 54.42 269.27 54.42 274.55 54.42 279.84 54.42 285.12 54.42 285.12 59.82 285.12 65.23 285.12 70.64 285.12 76.04 279.84 76.04 274.55 76.04 269.27 76.04 263.99 76.04 263.99 70.64 263.99 65.23 263.99 59.82 263.99 54.42" fill="none" mix-blend-mode="multiply" opacity=".5" stroke="#000" stroke-miterlimit="10" stroke-width=".25"/>
      <polygon id="stitch2.11" points="242.86 54.42 248.14 54.42 253.42 54.42 258.71 54.42 263.99 54.42 263.99 59.82 263.99 65.23 263.99 70.64 263.99 76.04 258.71 76.04 253.42 76.04 248.14 76.04 242.86 76.04 242.86 70.64 242.86 65.23 242.86 59.82 242.86 54.42" fill="none" mix-blend-mode="multiply" opacity=".5" stroke="#000" stroke-miterlimit="10" stroke-width=".25"/>
      <polygon id="stitch2.10" points="221.73 54.42 227.01 54.42 232.29 54.42 237.58 54.42 242.86 54.42 242.86 59.82 242.86 65.23 242.86 70.64 242.86 76.04 237.58 76.04 232.29 76.04 227.01 76.04 221.73 76.04 221.73 70.64 221.73 65.23 221.73 59.82 221.73 54.42" fill="none" mix-blend-mode="multiply" opacity=".5" stroke="#000" stroke-miterlimit="10" stroke-width=".25"/>
      <polygon id="stitch2.9" points="200.6 54.42 205.88 54.42 211.17 54.42 216.45 54.42 221.73 54.42 221.73 59.82 221.73 65.23 221.73 70.64 221.73 76.04 216.45 76.04 211.17 76.04 205.88 76.04 200.6 76.04 200.6 70.64 200.6 65.23 200.6 59.82 200.6 54.42" fill="none" mix-blend-mode="multiply" opacity=".5" stroke="#000" stroke-miterlimit="10" stroke-width=".25"/>
      <polygon id="stitch2.8" points="179.47 54.42 184.75 54.42 190.04 54.42 195.32 54.42 200.6 54.42 200.6 59.82 200.6 65.23 200.6 70.64 200.6 76.04 195.32 76.04 190.04 76.04 184.75 76.04 179.47 76.04 179.47 70.64 179.47 65.23 179.47 59.82 179.47 54.42" fill="none" mix-blend-mode="multiply" opacity=".5" stroke="#000" stroke-miterlimit="10" stroke-width=".25"/>
      <polygon id="stitch2.7" points="158.34 54.42 163.63 54.42 168.91 54.42 174.19 54.42 179.47 54.42 179.47 59.82 179.47 65.23 179.47 70.64 179.47 76.04 174.19 76.04 168.91 76.04 163.63 76.04 158.34 76.04 158.34 70.64 158.34 65.23 158.34 59.82 158.34 54.42" fill="none" mix-blend-mode="multiply" opacity=".5" stroke="#000" stroke-miterlimit="10" stroke-width=".25"/>
      <polygon id="stitch2.6" points="137.21 54.42 142.5 54.42 147.78 54.42 153.06 54.42 158.34 54.42 158.34 59.82 158.34 65.23 158.34 70.64 158.34 76.04 153.06 76.04 147.78 76.04 142.5 76.04 137.21 76.04 137.21 70.64 137.21 65.23 137.21 59.82 137.21 54.42" fill="none" mix-blend-mode="multiply" opacity=".5" stroke="#000" stroke-miterlimit="10" stroke-width=".25"/>
      <polygon id="stitch2.5" points="116.09 54.42 121.37 54.42 126.65 54.42 131.93 54.42 137.21 54.42 137.21 59.82 137.21 65.23 137.21 70.64 137.21 76.04 131.93 76.04 126.65 76.04 121.37 76.04 116.09 76.04 116.09 70.64 116.09 65.23 116.09 59.82 116.09 54.42" fill="none" mix-blend-mode="multiply" opacity=".5" stroke="#000" stroke-miterlimit="10" stroke-width=".25"/>
      <polygon id="stitch2.4" points="93.66 55.05 100.21 57.26 102.12 55.75 110.8 54.42 116.09 54.42 116.09 59.82 116.09 65.23 116.09 70.64 116.09 76.04 110.8 76.04 105.52 76.04 100.21 78.46 92.77 76.61 94.96 70.64 97.94 64.38 100.21 57.26 93.66 55.05" fill="none" mix-blend-mode="multiply" opacity=".5" stroke="#000" stroke-miterlimit="10" stroke-width=".25"/>
      <polygon id="stitch2.3" points="74.26 55.82 78.36 59.25 85.23 57.66 89.46 56.45 93.66 55.05 100.21 57.26 97.94 64.38 94.96 70.64 92.77 76.61 89.21 77.44 84 78.52 78.36 79.56 73.05 75.22 73.83 70.64 75.53 64.91 78.36 59.25 74.26 55.82" fill="none" mix-blend-mode="multiply" opacity=".5" stroke="#000" stroke-miterlimit="10" stroke-width=".25"/>
      <polygon id="stitch2.2" points="50.79 51.32 54.95 60.77 62.14 58.23 68.76 56.13 74.26 55.82 78.36 59.25 75.53 64.91 73.83 70.64 73.05 75.22 68.73 76.61 64.02 77.78 57.28 79.56 49.27 75.22 52.7 70.64 54.1 65.23 54.95 60.77 50.79 51.32" fill="none" mix-blend-mode="multiply" opacity=".5" stroke="#000" stroke-miterlimit="10" stroke-width=".25"/>
      <g id="stitch2.1" mix-blend-mode="multiply" opacity=".5">
        <polygon points="32.07 61.86 35.06 60.73 40.77 56.1 47.1 53.27 50.79 51.32 54.95 60.77 54.1 65.23 52.7 70.64 49.27 75.22 47.42 76.04 41.67 78.67 36.25 79.43 31.96 82.66 28.4 76.98 28.4 72.01 30.27 65.23 32.07 61.86" fill="none" mix-blend-mode="multiply" opacity=".55" stroke="#000" stroke-miterlimit="10" stroke-width=".25"/>
      </g>
      <g id="stitch1.1" mix-blend-mode="multiply" opacity=".5">
        <polygon points="37.34 37.02 39.72 35.02 44.08 31.68 53.84 30.2 59.81 31.57 57.41 36.95 55.37 43.1 52.7 48.36 50.79 51.32 47.1 53.27 40.77 56.1 35.06 60.73 32.07 61.86 29.66 56.1 31.57 44.43 34.41 39.53 37.34 37.02" fill="none" mix-blend-mode="multiply" stroke="#000" stroke-miterlimit="10" stroke-width=".25"/>
      </g>
    </g>
    <g id="row1">
      <polygon id="stitch1.16" points="348.5 30.2 353.79 30.2 359.07 30.2 364.35 30.2 369.63 30.2 369.63 36.25 369.63 42.31 369.63 48.36 369.63 54.42 364.35 54.42 359.07 54.42 353.79 54.42 348.5 54.42 348.5 48.36 348.5 42.31 348.5 36.25 348.5 30.2" fill="none" mix-blend-mode="multiply" opacity=".5" stroke="#000" stroke-miterlimit="10" stroke-width=".25"/>
      <polygon id="stitch1.15" points="327.38 30.2 332.66 30.2 337.94 30.2 343.22 30.2 348.5 30.2 348.5 36.25 348.5 42.31 348.5 48.36 348.5 54.42 343.22 54.42 337.94 54.42 332.66 54.42 327.38 54.42 327.38 48.36 327.38 42.31 327.38 36.25 327.38 30.2" fill="none" mix-blend-mode="multiply" opacity=".5" stroke="#000" stroke-miterlimit="10" stroke-width=".25"/>
      <polygon id="stitch1.14" points="306.25 30.2 311.53 30.2 316.81 30.2 322.09 30.2 327.38 30.2 327.38 36.25 327.38 42.31 327.38 48.36 327.38 54.42 322.09 54.42 316.81 54.42 311.53 54.42 306.25 54.42 306.25 48.36 306.25 42.31 306.25 36.25 306.25 30.2" fill="none" mix-blend-mode="multiply" opacity=".5" stroke="#000" stroke-miterlimit="10" stroke-width=".25"/>
      <polygon id="stitch1.13" points="285.12 30.2 290.4 30.2 295.68 30.2 300.96 30.2 306.25 30.2 306.25 36.25 306.25 42.31 306.25 48.36 306.25 54.42 300.96 54.42 295.68 54.42 290.4 54.42 285.12 54.42 285.12 48.36 285.12 42.31 285.12 36.25 285.12 30.2" fill="none" mix-blend-mode="multiply" opacity=".5" stroke="#000" stroke-miterlimit="10" stroke-width=".25"/>
      <polygon id="stitch1.12" points="263.99 30.2 269.27 30.2 274.55 30.2 279.84 30.2 285.12 30.2 285.12 36.25 285.12 42.31 285.12 48.36 285.12 54.42 279.84 54.42 274.55 54.42 269.27 54.42 263.99 54.42 263.99 48.36 263.99 42.31 263.99 36.25 263.99 30.2" fill="none" mix-blend-mode="multiply" opacity=".5" stroke="#000" stroke-miterlimit="10" stroke-width=".25"/>
      <polygon id="stitch1.11" points="242.86 30.2 248.14 30.2 253.42 30.2 258.71 30.2 263.99 30.2 263.99 36.25 263.99 42.31 263.99 48.36 263.99 54.42 258.71 54.42 253.42 54.42 248.14 54.42 242.86 54.42 242.86 48.36 242.86 42.31 242.86 36.25 242.86 30.2" fill="none" mix-blend-mode="multiply" opacity=".5" stroke="#000" stroke-miterlimit="10" stroke-width=".25"/>
      <polygon id="stitch1.10" points="221.73 30.2 227.01 30.2 232.29 30.2 237.58 30.2 242.86 30.2 242.86 36.25 242.86 42.31 242.86 48.36 242.86 54.42 237.58 54.42 232.29 54.42 227.01 54.42 221.73 54.42 221.73 48.36 221.73 42.31 221.73 36.25 221.73 30.2" fill="none" mix-blend-mode="multiply" opacity=".5" stroke="#000" stroke-miterlimit="10" stroke-width=".25"/>
      <polygon id="stitch1.9" points="200.6 30.2 205.88 30.2 211.17 30.2 216.45 30.2 221.73 30.2 221.73 36.25 221.73 42.31 221.73 48.36 221.73 54.42 216.45 54.42 211.17 54.42 205.88 54.42 200.6 54.42 200.6 48.36 200.6 42.31 200.6 36.25 200.6 30.2" fill="none" mix-blend-mode="multiply" opacity=".5" stroke="#000" stroke-miterlimit="10" stroke-width=".25"/>
      <polygon id="stitch1.8" points="179.47 30.2 184.75 30.2 190.04 30.2 195.32 30.2 200.6 30.2 200.6 36.25 200.6 42.31 200.6 48.36 200.6 54.42 195.32 54.42 190.04 54.42 184.75 54.42 179.47 54.42 179.47 48.36 179.47 42.31 179.47 36.25 179.47 30.2" fill="none" mix-blend-mode="multiply" opacity=".5" stroke="#000" stroke-miterlimit="10" stroke-width=".25"/>
      <polygon id="stitch1.7" points="158.34 30.2 163.63 30.2 168.91 30.2 174.19 30.2 179.47 30.2 179.47 36.25 179.47 42.31 179.47 48.36 179.47 54.42 174.19 54.42 168.91 54.42 163.63 54.42 158.34 54.42 158.34 48.36 158.34 42.31 158.34 36.25 158.34 30.2" fill="none" mix-blend-mode="multiply" opacity=".5" stroke="#000" stroke-miterlimit="10" stroke-width=".25"/>
      <polygon id="stitch1.6" points="137.21 30.2 142.5 30.2 147.78 30.2 153.06 30.2 158.34 30.2 158.34 36.25 158.34 42.31 158.34 48.36 158.34 54.42 153.06 54.42 147.78 54.42 142.5 54.42 137.21 54.42 137.21 48.36 137.21 42.31 137.21 36.25 137.21 30.2" fill="none" mix-blend-mode="multiply" opacity=".5" stroke="#000" stroke-miterlimit="10" stroke-width=".25"/>
      <polygon id="stitch1.5" points="116.09 30.2 121.37 30.2 126.65 30.2 131.93 30.2 137.21 30.2 137.21 36.25 137.21 42.31 137.21 48.36 137.21 54.42 131.93 54.42 126.65 54.42 121.37 54.42 116.09 54.42 116.09 48.36 116.09 42.31 116.09 36.25 116.09 30.2" fill="none" mix-blend-mode="multiply" opacity=".5" stroke="#000" stroke-miterlimit="10" stroke-width=".25"/>
      <polygon id="stitch1.4" points="101.76 32.45 105.84 31.01 107.87 30.2 110.8 30.2 116.09 30.2 116.09 36.25 116.09 42.31 116.09 48.36 116.09 54.42 110.8 54.42 102.12 55.75 100.21 57.26 93.66 55.05 96.46 49.07 99.07 41 100.34 36.23 101.76 32.45" fill="none" mix-blend-mode="multiply" opacity=".5" stroke="#000" stroke-miterlimit="10" stroke-width=".25"/>
      <polygon id="stitch1.3" points="83.7 35.42 86.58 32.49 89.42 30.57 92.77 29.57 101.76 32.45 100.34 36.23 99.07 41 96.46 49.07 93.66 55.05 89.46 56.45 85.23 57.66 78.36 59.25 74.26 55.82 74.93 48.31 77.67 42.31 81.02 36.65 83.7 35.42" fill="none" mix-blend-mode="multiply" opacity=".5" stroke="#000" stroke-miterlimit="10" stroke-width=".25"/>
      <polygon id="stitch1.2" points="59.81 31.57 63.09 29.99 68.85 28.86 75.85 29.35 81.02 31.56 81.02 36.65 77.67 42.31 74.93 48.31 74.26 55.82 68.76 56.13 62.14 58.23 54.95 60.77 50.79 51.32 52.7 48.36 55.37 43.1 57.41 36.95 59.81 31.57" fill="none" mix-blend-mode="multiply" opacity=".5" stroke="#000" stroke-miterlimit="10" stroke-width=".25"/>
    </g>
  </g>
</svg>